<mxfile host="65bd71144e">
    <diagram id="Ru0au2M1xt3UKicz6dEo" name="Page-1">
        <mxGraphModel dx="1920" dy="1423" grid="1" gridSize="10" guides="1" tooltips="1" connect="1" arrows="1" fold="1" page="1" pageScale="1" pageWidth="850" pageHeight="1100" math="0" shadow="0">
            <root>
                <mxCell id="0"/>
                <mxCell id="1" parent="0"/>
                <mxCell id="2" style="edgeStyle=none;shape=arrow;html=1;exitX=0.056;exitY=-0.111;exitDx=0;exitDy=0;exitPerimeter=0;" edge="1" parent="1" source="20">
                    <mxGeometry relative="1" as="geometry">
                        <mxPoint x="490" y="260" as="sourcePoint"/>
                        <mxPoint x="690" y="230" as="targetPoint"/>
                        <Array as="points">
                            <mxPoint x="560" y="240"/>
                        </Array>
                    </mxGeometry>
                </mxCell>
                <mxCell id="3" value="" style="whiteSpace=wrap;html=1;shadow=0;fillColor=#1ba1e2;fontColor=#ffffff;strokeColor=#006EAF;" vertex="1" parent="1">
                    <mxGeometry x="410" y="200" width="20" height="2200" as="geometry"/>
                </mxCell>
                <mxCell id="4" value="" style="whiteSpace=wrap;html=1;shadow=0;fillColor=#1ba1e2;fontColor=#ffffff;strokeColor=#006EAF;" vertex="1" parent="1">
                    <mxGeometry x="695" y="200" width="20" height="2210" as="geometry"/>
                </mxCell>
                <mxCell id="5" value="" style="whiteSpace=wrap;html=1;shadow=0;fillColor=#1ba1e2;fontColor=#ffffff;strokeColor=#006EAF;" vertex="1" parent="1">
                    <mxGeometry x="990" y="200" width="20" height="2220" as="geometry"/>
                </mxCell>
                <mxCell id="6" value="" style="whiteSpace=wrap;html=1;shadow=0;fillColor=#1ba1e2;fontColor=#ffffff;strokeColor=#006EAF;" vertex="1" parent="1">
                    <mxGeometry x="1285" y="190" width="20" height="2210" as="geometry"/>
                </mxCell>
                <mxCell id="7" value="&lt;font style=&quot;font-size: 23px;&quot;&gt;User&lt;/font&gt;" style="text;strokeColor=none;align=center;fillColor=none;html=1;verticalAlign=middle;whiteSpace=wrap;rounded=0;shadow=0;" vertex="1" parent="1">
                    <mxGeometry x="390" y="160" width="60" height="30" as="geometry"/>
                </mxCell>
                <mxCell id="8" value="&lt;font style=&quot;font-size: 23px;&quot;&gt;Web Site&amp;nbsp;&lt;/font&gt;" style="text;strokeColor=none;align=center;fillColor=none;html=1;verticalAlign=middle;whiteSpace=wrap;rounded=0;shadow=0;" vertex="1" parent="1">
                    <mxGeometry x="640" y="160" width="130" height="30" as="geometry"/>
                </mxCell>
                <mxCell id="9" value="&lt;font style=&quot;font-size: 23px;&quot;&gt;API&lt;/font&gt;" style="text;strokeColor=none;align=center;fillColor=none;html=1;verticalAlign=middle;whiteSpace=wrap;rounded=0;shadow=0;" vertex="1" parent="1">
                    <mxGeometry x="970" y="160" width="60" height="30" as="geometry"/>
                </mxCell>
                <mxCell id="10" value="&lt;font style=&quot;font-size: 23px;&quot;&gt;DATA BASE&lt;/font&gt;" style="text;strokeColor=none;align=center;fillColor=none;html=1;verticalAlign=middle;whiteSpace=wrap;rounded=0;shadow=0;" vertex="1" parent="1">
                    <mxGeometry x="1200" y="150" width="190" height="30" as="geometry"/>
                </mxCell>
                <mxCell id="11" value="" style="shape=image;verticalLabelPosition=bottom;labelBackgroundColor=default;verticalAlign=top;aspect=fixed;imageAspect=0;image=data:image/png,iVBORw0KGgoAAAANSUhEUgAAA8EAAAeACAYAAADuA1XaAACpz0lEQVR42uzdd7y+92D/8dedIbFib0WrWpSWLrS0RgZCSOzRlKJGW6NFB/q7WrRatKlZo4pSqrYgiQQ1SlHUaGO1aFQIIRIRWdfvj3O0ERnfs+/7up/PxyOPqJE073Oucz6vc133fWbjOAYAy2A2tFd1heqKq3++bHWJ6mLVxc/1x678e2dXp23gj29VX69OPPefx6EzfMQAYAvOAyIYgAWO2t2rq5wjar/353P/6+/935dcoH+8k88RxecVyl+r/nv1j+PGodN9RgCACAZg8UP3ytUPn88fP1TtYaXG6ivniOIvnse/Pn4cOttUAIhgEQzAzkbuXtV1q2ufR+Req7qolTbFGdWXVoP4C9Wx1X+s/vFZj18DIIIBYHNjd7fV0L1BdcPVP9+guk7u5u60M6vPniOKv/fHp8ahU8wDgAgGgAsO3qudI3K/F7zXz13dRTNWx50rjD9S/ds49F3zACCCAVjG4L1SddPqZqt//snqMpaZtNOrj1UfXP3jA9V/eM0xACIYgKkF757VT50jeG/Wymt34ZTqX88ZxuPQ580CgAgGYJGi9yrnCt6fySPN7Lqv9X93it9V/fM4dJpZABDBAMxL9F6p2rfav/rl6ppWYRN9t3pf9fbqHdW/eFdqAEQwANsZvRetfqnab/WPG1Yzy7BNvl29dzWK3159eBw6yywAiGAANit6Z9WNzxG9N6/2sgxz4qRWHpv+3p3ij41DDioAiGAA1hS+V65uvxq9+1aXtwoL4vjq8OoN1dFeTwyACAbg/ML3WtUhq3/crNrNKiy4b1dHVW+sDh+HvmYSAEQwwHKH7/XPEb43tggTdlb1z6tB/IZx6DMmAUAEAyxH+P7MOcL3uhZhSf1HK49Mv7F6v9cRAyCCAaYTvbPqF6q7VgfnVxjBuR1Xvbx62Tj0CXMAIIIBFjN+r1kdWv1qdW2LwC75t+rvqleMQ/9jDgBEMMB8h+/FqrtU96tuld/fC+t1dnVM9bLqtePQKSYBEMEAzE/83nw1fO9eXdIisKlOrV7fyh3it41DZ5kEQAQDsP3he43+73HnH7UIbIuvVH9f/fU49GlzAIhgALY2fHer7lD9ZnWb/C5f2Clj9bbq2a38DuKzTQIgggHYvPjdp/q16reqH7EIzJUvVH9dvXAc+po5AEQwAOuP3+ushu/98lpfmHffrV5VPXsc+hdzAIhgAHY9fverHlHdPu/wDIvoQ608Kv3Kceg0cwCIYAB+MHwvVt13NX6vbxGYhK9XL6gOG4e+Yg4AEQzgi+rQZavfrh5aXdYiMEnfqf6meuo49EVzAIhggGWM38tXv1P9Rl7vC8vijFZ+3/BTxqHPmANABAMsQ/xesXp09bDq4haBpXR29Y/Vn4xDHzMHgAgGmGL8Xql6bPWQ6mIWAVr5fcOHr8bw+80BIIIBphC/V1mN3wdXF7UIcD7eXj15HHq7KQBEMMAixu9Vq9+rHlTtbRFgFx1dPXYc+ogpAEQwwCLE7yVaufP7O3nsGVifsXpF9bhx6PPmABDBAPMYv7tVv1Y9sbqyRYBNcHr17FYek/66OQBEMMC8BPAB1VOrG1oD2AInVU+p/moc+o45AEQwwE7F7w2qp1UHWAPYBl+q/rB6yTh0ljkARDDAdsXvlas/buXx590tAmyzT7by5llvMQWACAbYyvjdu3pMK298dQmLADvs9dUjxqEvmgJABANsdgDfpvrr6ketAcyRb1d/VP3lOHSmOQBEMMBG4/fy1dOrQ60BzLFPVA8dh95jCgARDLDeAP7V1QC+nDWABTBWf9vK64X9SiUAEQywy/F7nep51a2sASygr1e/W71oHHJwAxDBAOcbvxdZPTg+rtrLIsCCe28rj0h/3BQAIhjg3AF88+r51fWsAUzImdWTqid74ywAEQzwvV979JTq4dXMIsBEfbA6dBw61hQAIhhY3gC+UfXy6vrWAJbAd6rfr57htcIAIhhYrvjdrXp09cTqIhYBlsw7qvuNQ180BYAIBqYfwNesXlr9kjWAJfat6hHj0ItNASCCgekG8K9Uz6r2sQZAVa+vHjwOfdUUACIYmE78Xqb66+ru1gD4ASdUDxqH3mAKABEMLH4A36Z6SXU1awBcoL+sHutXKQGIYGAx43dWPb4aqt0sArBL3lvdYxz6kikARDCwOAF8mervqgOtAbBmJ1T3GoeOMQWACAbmP4BvXL2m+mFrAKzb2dX/q57sdwoDIlgEA/MbwPevnlPtbQ2ATfHW6r7j0ImmAEQwwPzE717VM6sHWQNg032xuts49AFTAMvIm8sA8xbA16zeI4ABtsw1qnfPhn7DFMBSnjfdCQbmKIAPqF5eXc4aANviedVv+jVKwDJxJxiYlwD+zerNAhhgWz24evNsaB9TAEtz7nQnGNjh+N2telr1KGsA7JhPVncYhz5vCkAEA2xdAF+0lcefD7YGwI77anXQOPQvpgCmzOPQwE4F8BWrdwpggLlxxeqds6G7mQIQwQCbG8DXq95f/bw1AObK3tU/zIZ+3xTAZM+iHocGtjmAb1m9rrq0NQDm2t9WDx6HzjAFIIIB1hfAv1K9sLqINQAWwjHVncehU0wBTIXHoYHtCuDfr14qgAEWym2qt82GLmMKQAQD7HoAP6n6E0sALKSbVu9YfUNDgMU/m3ocGtjiAH569duWAFh4n6r2HYeOMwUgggF+MH5n1bOrh1oDYDK+UN1mHPqcKQARDPB/Abx7K2+AdT9rAEzOl6v9xqFPmgIQwYAvKkN7VC+r7mENgMn6enXbcehDpgAWjTfGAjYzgC9SvVoAA0ze5apjZkO3MAWwcGdWd4KBTQrgi1avqw6wBsDSOLU6YBx6jykAEQwsUwDvVR1e7WsNgKXzrerW49C/mgJYBB6HBjYawHtU/yCAAZbWPtWRs6HrmwIQwcDUA3i36sXVnawBsNQuVx09G7q2KQARDEzZc6r7mAGA6iqrIXx1UwAiGJic2dBTqwdbAoBzuFb1ttnQFUwBiGBgSgH8hOrRlgDgPFy3Omo2dGlTAHN5lvXu0MAaA/gR1WGWAOBCvK/abxz6tikAEQwsagA/oHpBNbMGALvgqOrAcehMUwDzwuPQwK4G8J2q5wtgANZg/+pZZgDm6lzrTjCwCwF84+rd1cWtAcA6/M449BdmAEQwsAgBfNXqA9XVrAHAOp1dHTIOvcEUgAgG5jmAL9bKHeCftgYAG/Tt6pfGoQ+bAthJXhMMnF8Az6qXCWAANsnFqzfNBk8WASIYmE9PqQ42AwCb6KrV4bPBe0wAIhiYI6u/CumxlgBgC9yoesVscA4FRDAwHwF8q+q5lgBgC92xepoZgB0573pjLOAcAXyd6l+qy1gDgG1wz3HoH8wAiGBgJwL4otX7q5+0BgDb5OTq58ahT5kC2C4ehwa+5zkCGIBtdsnq1au/kg9ABAPbY/WNsO5nCQB2wA3yXhTAdp59PQ4NSx/AN6reV+1tDQB20IPGoReaARDBwFYG8KWqf62ubQ0Adthp1c3GoY+aAthKHoeG5fZiAQzAnNi7ldcHX8oUgAgGNt1s6NHVnS0BwBy5dvW3ZgC29BzscWhYygC+RfX2ag9rADCHHjEOPcMMgAgGNiOAL1t9vLqqNQCYU6dVPz0O/YcpgM3mcWhYPs8VwADMub2rl84GTywBIhjYgNnQvaq7WwKABfCz1ePMAGz6mdjj0LA0AXy1Vh6Dvow1AFgQZ7bya5M+ZApgs7gTDMvjRQIYgAWzRyuPRe9tCkAEA7tsNvSwan9LALCArlf9iRmATTsbexwaJh/A16k+Wl3MGgAsqLG69Tj0TlMAIhi4oADevXpPdVNrALDgvlDdcBw62RTARngcGqbt9wQwABNxzerpZgA2yp1gmOrFPXSD6sPVntYAYCLG6hfHofeZAlgvd4JhmgE8q54ngAGY2re46rmrL/cBEMHA/3pg9QtmAGCCfqr6LTMA6+VxaJjaRT10xerY/E5gAKbr5Oq649D/mAJYK3eCYXqeLoABmLhLVn9hBmA93AmGKV3QQ7epjrYEAEti/3HobWYARDAsZwDvVX28uo41AFgSn65+chz6rimAXeVxaJiO3xfAACyZH6seawZgLdwJhilcyEM/Xv1btZc1AFgyp1XXG4c+bwpgV7gTDNPwLAEMwJLau3qyGYBd5U4wLPpFPHT76s2WAGCJjdXPjkMfNgVwYdwJhsUO4N2rP7cEAMv+LdH3Q0AEw3K4f/UTZgCAbjMbOsAMwIXxODQs6sU7dPHqM9VVrAEA1cqbRP70OHS2KYDz404wLK5HC2AA+D4/Vd3HDMAFcScYFvHCHbpyK3eBL2ENAPg+X6h+fBz6rimA8+JOMCymPxLAAHCerln9phmA8+NOMCzaRTt0/epj1e7WAIDzdGJ17XHom6YAzs2dYFg8fyaAAeACXbZ6lBmA8+JOMCzSBTv089W/WAIALtQ3qmuOQyebAjgnd4JhsTzBBACwSy5TPdQMwLm5EwyLcrEO3bj6sCUAYJd9pbrWOHSaKYDvcScYFoe7wACwNleqHmAG4JzcCYZFuFCHblj9WzWzBgCsyRerHx2HzjAFUO4Ew6J4vAAGgHW5RnVfMwDf404wzPtFOnS96hP5oRUArNenq+uNQ2ebAnCohvn3ONcqAGzIj1V3NQMggmHOzYauU93TEgCwYb9vAkAEw/z73Wp3MwDAht1oNvRLZgBEMMyp2dDlq/tYAgA2zcNMAIhgmF+/Xu1tBgDYNIfMhq5sBhDBwJyZDe2Rn1YDwGbbs3qQGUAEA/PnLtXVzAAAm+7Bqz9sBkQwMEcebgIA2BJXqw4yA4hgYE7Mhn62+gVLAMCW+Q0TgAgG5oe7wACwtW49G7quGUAEAztsNnSl6h6WAIAt5w0oQQQDc+Ah1UXMAABb7tDZ0MXMACIY2CGzod1b+d3AAMDWu1R1JzOACAZ2zv7VVc0AANvmviYAEQzsnPuZAAC21f6zoSuYAUQwsM1mQ5fJI1kAsN32qO5pBhDBwPa7Z7WXGQBg23kkGkQwsAPuZwIA2BE/Pxu6jhlABAPbZDZ0vernLQEAO8bdYBDBwDa6nwkAYEfdxwSwPGbjOFoBduoCXPndwP9dXcUaALCjfmEcep8ZYPrcCYadtb8ABoC5cG8TgAgGtp7HrwBgPvhVhbAkPA4NO3XxDV2k+mp1KWsAwFy48Tj0UTPAtLkTDDvnNgIYAObKHU0AIhjYOncxAQDMlYNMANPncWjYiQtv5V2hj68ubw0AmBtjdfVx6H9MAdPlTjDsjF8SwAAwd2bVHcwAIhjYfB6FBoD55HXBMHEeh4btvuiGZtVx1VWtAQBz5zvV5cehU00B0+ROMGy/mwpgAJhbF632NQOIYGDzeBQaAOabR6JBBAOb6EATAMBcu40JYLq8Jhi284IbumL1FUsAwNy75jj0RTPA9LgTDNvrl0wAAAvhliYAEQxs3C+bAABEMCCCQQQDACIY2HJeEwzbdbENXbb6WjWzBgAsBK8LhglyJxi2zy0EMAAslFuaAEQwsH7eFAsARDAggmFpeD0wAIhgYId5TTBsx4U2tE91YrW7NQBgoVxjHPpvM8B0uBMM2+MXBTAALKSbmgBEMLB2HoUGgMX0MyYAEQyIYABYFj9tAhDBwBrMhi6WnyIDgAgGRDAsiV+o9jQDACyky82GrmEGEMHArvP7gQFgsXmiC0QwsAZeDwwAi80j0SCCgV0xG9qruoklAEAEAyIYlsFNqr3MAAALzePQIIKBXeRRaABYfFeaDV3VDCCCgQt3cxMAwCT8pAlABAMX7vomAIBJ+DETgAgGLsBs6GLV1SwBACIYEMGwDH60mpkBAEQwIILBN0sAYJFcxwQgggERDADL4hqzwa89BBEMiGAAWJ5z87XNACIYEMEA4Hs7IIIBrx0CAN/bAREMS2A2dJnq8pYAgElxJxhEMOCbJAAsDXeCQQQDIhgAlsbVTQAiGBDBALAsrmICEMHAefO4FABMz8VmQ/uYAUQw8IPcCQaAabqqCUAEAz/InWAAmCaPRIMIBs5pNnTV6hKWAAARDIhgWAbuAgOACAZEMCwNrwcGgOnymmAQwYAIBoCl4U4wiGBABAOACAZEMCyra5kAACbrCiYAEQx8v0uZAAAm65ImABEMfL99TAAAIhgQwSCCAQARDIhgmIrZ0MWr3S0BAJO1x2xobzOACAZWuAsMANPnbjCIYEAEA8DSuIQJQAQDIhgAloU7wSCCAREMACIYEMGwbPyOYAAQwYAIhqXhTjAATJ/XBIMIBkQwACyNPUwAIhgQwQAAIIJBBAMAACIYRDAAACCCYaF5d2gAABDBsDTcCQYAABEMIhgAABDBIIIBAAARDCIYAAAQwSCCAQAAEQxzYS8TAMDknWkCEMHAiu+YAAAm72QTgAgGVpxqAgAQwYAIBhEMAEzFKSYAEQyIYABYFu4EgwgGRDAAiGBABIMIBgBEMCCCQQQDAAvojHHou2YAEQyIYABYBu4CgwgGRDAAiGBABIMIBgBEMCCCQQQDAAvqBBOACAZEMAAsi+NNACIYEMEAsCy+bAIQwYAIBoBl4U4wiGBABAOACAZEMCyj75gAACbN49AggoFzcCcYAKbNnWAQwYAIBgARDIhgEMEAwJScUX3dDCCCAREMAMvgK+PQaAYQwcD/8dNhAJiuL5kARDDw/f6n+q4ZAGCSPmMCEMHAOaw+IvV5SwCACAZEMCyL/zQBAEzSp00AIhj4Qf9lAgCYJHeCQQQD58GdYAAQwYAIBhEMACysr4xD3zIDiGDgB3kcGgCmx+uBQQQD58OdYACYHo9CgwgGzsvqo1InWgIAJsWdYBDBwAVwNxgApsWdYBDBgAgGgKXxMROACAbOnzfHAoDpOKn6nBlABAPnz51gAJiOj45DoxlABAPnz51gAJiOD5sARDBwwdwJBgARDIhgWBpfrM4yAwCIYEAEw+SNQ2dUx1kCABbeqdWxZgARDFw4j0QDwOL7t3HobDOACAYunDfHAoDF51FoEMHALnInGABEMCCCwTdNAGBhfMAEIIKBXfO+ajQDACysr1efNAOIYGAXjEPfrP7dEgCwsN41Dn6gDSIYWIt/NgEALKx/MgGIYEAEA8CyeJcJQAQDa/NeEwDAQvpm9W9mABEMrME49JnqBEsAwMJ5zzh0thlABANr55FoAFg8Xg8MIhgQwQAgggERDFwwrwsGgMVycvVhM4AIBtbnX6vTzQAAC+M949BZZgARDKzDOHRafpoMAIvkzSYAEQxsjEeiAWBxvMkEIIKBjfHmWACwGD42Dn3RDCCCAREMAMvgcBOACAY2aBw6vvpPSwDA3PMoNIhgYJO4GwwA8+2r1QfMACIY2BzeHAsA5tubx6GzzQAiGNgc7gQDwHzzemAQwcAm+kT1LTMAwFz6bnWUGUAEA5tk9fGqd1kCAObSO8ehU8wAIhjYXG80AQDMpVeZAEQwsPkOr0YzAMBc+W71WjOACAY22Tj05eqDlgCAufLWceibZgARDGyNN5gAAObKK0wAIhjYOl4XDADz45TqTWYAEQxskXHoE9V/WgIA5sLrx6HvmAFEMLC13A0GgPngUWgQwYAIBoCl8PXqbWYAEQxsvXdX3zADAOyofxyHzjADiGBgi41DZ+ZNOABgp3kUGkQwsI1ebgIA2DGfaeXJLEAEA9vkmOorZgCAHfHX49BoBhDBwDYZh86qXmUJANh2p1UvNgOIYGD7eSQaALbfq8ahE80AIhjYZuPQv1SfswQAbKvnmgBEMLBz/t4EALBtPjoOvd8MIIIBEQwAy+CvTQAiGNhB49Cx1YctAQBb7uS8HweIYBPAXHA3GAC23svGoVPMACIY2Hkvr84wAwBsKW+IBYhgmAfj0PHV6ywBAFvmbePQx80AiGCYH88xAQBsmaeYAKiajeNoBZiXC3LoE9VPWAIANtWHxqGfMwNQ7gTDvHE3GAA2n7vAgAiGOfV35V0rAWATfSbvuwGIYJhP49DJqyEMAGyOp45DZ5sBEMEwvzwSDQCb48vVS80AiGCYY+PKm2O92xIAsGGHjUPfNQMggmH+PdsEALAhJ1V/bQZABMNieE31BTMAwLo9exz6lhkAEQwLYBw6s3qaJQBgXb7p+ygggmHx/E11ghkAYM3+bBz6hhkAEQwLZBz6TvUMSwDAmnzZ909ABMPienZ1ihkAYJf98Th0qhkAEQwLaPVRrudZAgB2yWerF5oBEMGw2P6yOt0MAHChnrD65pIAIhgW1Tj0pervLAEAF+ij1T+YARDBMA1Prc42AwCcrz8Yh0YzACIYJmAc+lT1aksAwHl61zj0VjMAIhim5Q+rs8wAAN9nrB5tBkAEw9S+w6/cDX6RJQDg+7xoHPqgGQARDNP0R9VpZgCAqr5Z/b4ZABEME7X6TtHPtAQAVPWH49AJZgBEMEzbU6qTzADAkvt49RwzACIYJm4cOrH6c0sAsOR+axy8YSQggmFZHFYdbwYAltQrx6F/MgMggmFJjEOnVk+0BABL6Nv5lUiACIal9ILqc2YAYMk8afWNIgFEMCyTceiM6lGWAGCJfKr6CzMAIhiWN4TfVL3ZEgAsgbOrXxuHTjcFIIJhuT2i+q4ZAJi4w8ahfzYDIIJhyY1Dn6v+zBIATNhnqsebARDBwPc8pfq8GQCYoLOr+49D3zEFIIKBqlYPBo+0BAAT9Ffj0HvNAIhg4Nwh/IbqrZYAYEI+Uz3ODIAIBs7Pw/MmWQBMw/feDdpj0IAIBs7bOPTZ6mmWAGACnjEOvccMgAgGLsyTqmPNAMAC8xg0IIKBXTMOnVbdv5XHyABg0Zxe3WscOtUUgAgGdjWE31/9hSUAWEC/Ow79qxkAEQys1ROqT5kBgAXypnHoMDMAIhhYM49FA7Bgjlv9vgUggoF1h/D7qr+0BABz7qzq3uPQ100BiGBgox5ffdoMAMyxPxqH3m0GQAQDG+axaADm3DuqJ5sBEMHAZobwP+exaADmzwnVfcbBD2oBEQxsvj8ov3ICgLlxdnXoOPRlUwAiGNh049Dp1d2rb1kDgDnwuHHoCDMAIhjYyhD+z+qBlgBgh71iHHqKGQARDGxHCP9j9VxLALBDPlQ9wAyACAa206Oqj5oBgG12fHXnceg7pgBEMLBtxqHvtvL64JOtAcA2+W518Dj0JVMAIhjYiRD+TPVgSwCwTR48Dr3fDIAIBnYyhF9RvdASAGyxvxiHXmIGQAQD8+Dh1UfMAMAWObJ6rBmAeTEbx9EKsOxfCIZ+qPpgdSVrALCJPlndfBz6pimAeeFOMNA49N/Vwa28aQkAbIYvVgcIYEAEA/Mawu/LG2UBsDm+vhrA3gkaEMHAXIfwS6qnWwKADTi1OnAcOtYUgAgGFsFjq7eaAYB1OLO66zj0L6YARDCwEMahs6t7lZ/gA7C2byHVr42DH6QCIhhYvBA+qTqo+oY1ANhFjx2H/s4MgAgGFjWEP1PdvTrDGgBciKePQ08zAyCCgUUP4aOr+7fyiBsAnJeXVo8xAyCCgamE8Mur37YEAOfhZdX9x8EPSwERDEwrhA+r/tQSAJzDS6tfXX1DRYCFMRtHP7gDdvELxtALqgdaAmDpvbh6gAAGFpE7wcBaPKR6nRkAltrfCmBgkbkTDKzti8bQXtWR1S9bA2Dp/E31IK8BBkQwsGwhvE/1T9WNrAGwNF5QPVgAA4vO49DAmo1D36puW33WGgBL4XkCGBDBwLKH8FeqW1aftgbApD2neqgABqbC49DAxr6IDF2lent1XWsATM4fjUODGQARDPD9IXyl6pjqJ6wBMAlnVQ8bh55vCkAEA5x3CF9hNYRvaA2Ahfad6l7j0BtMAYhggAsO4ctXb8u7RgMsqm9UdxyH3msKQAQD7FoIX3Y1hH/aGgAL5b+r245D/24KYMq8OzSwqcahE6vbVB+0BsDC+ER1MwEMiGCA9YXwN6v9qndbA2Duvau6xTj0JVMAIhhg/SF80moIv9oaAHPrldUBqz+8BFgKXhMMbO0XmaHdqr+oHmENgLlxdvW4cegppgBEMMDWxPDvVE+tZtYA2FEnVfceh95iCkAEA2xtCN+zekl1EWsA7IhPVXcahz5lCmBZeU0wsG3GYeW1Z63chQBge725uokABkQwwPaG8Durm1fHWQNg2/xpddDqmxYCLDWPQwM788Vn6OrVW6obWgNgy5xa3X8cepUpAFa4EwzsiHHouOpm+RVKAFvl89UvCmCA7+dOMLDzX4iGfq96cn4wB7BZXl09yO//BRDBwPyG8P7VK6rLWgNg3b5TPXIcer4pAEQwMP8h/CPV66qftAbAmn2iusc49O+mADh/Hj0E5sY49J+tvE74ldYAWJPnVj8ngAEunDvBwHx+cRp6dPWUandrAJyvb1QPGIdeZwoAEQwsfgjfppW7wpe3BsAPeE9173Hov00BsOs8Dg3MrXHomFZeH3y0NQD+11nVH1e3FMAAa+dOMDD/X6iGZtXvtPJrlC5iEWCJfbz6tXHoQ6YAEMHA9GP4p1v5NUo/Zg1gyZxR/Wn15HHodHMAiGBgeUL44tVfVQ+wBrAkPlzdfxz6mCkARDCwvDF81+r51WWsAUzUd6s/qp46Dp1pDgARDAjhH6peVv2SNYCJeV8rr/091hQAm8u7QwMLa/VdUW9V/X51mkWACTi1+u3q5gIYYGu4EwxM44vZ0HWqF1S/bA1gQR1R/eY49DlTAIhggF0J4Vn1wOrPq0tbBFgQn60eNQ4dbgoAEQywnhi+SvXM6i7WAObYKa38/vO/8GuPAEQwwGbE8J2rZ1dXtQYwR8bq5dXvjkP/Yw4AEQywmSF8qerPql+vZhYBdti/Vr81Dr3PFAAiGGArY/gW1XOqG1gD2AFfrf6g+ttx6GxzAIhggO0I4d2rB1V/XF3BIsA2+G4rL8v443HoJHMAiGCAnYjhfarHVY+o9rIIsAXOrF5UPXEcOs4cACIYYB5i+Idb+XVKd7UGsEnOrv6+Gvy+XwARDDCvMXzz6i+rn7UGsAGvq54wDn3SFAAiGGDeQ3hW/Ur1J9XVLAKswZHV48ehD5kCQAQDLFoMX6x6VPU71WUsAlyAd1ePG4febQoAEQyw6DG8T/XI1SC+tEWAc3hn9afj0FGmABDBAFOL4UuthvAjq0tZBJbW2dVrqz8fhz5oDgARDDD1GL5M9dvVw6t9LAJL47TqxdXTx6HPmgNABAMsWwxftpXXC/9WdUmLwGSdWD2neuY49FVzAIhggGWP4ctVj64eljvDMCVfaOVXpr1wHPq2OQBEMADfH8OXrH6tlTvD17YILKx/XY3ffxiHzjQHgAgG4IJjeLfqjq28gdYtLQIL4eTq76vnj0MfNgeACAZgfUF8o9UYvme1l0Vg7nywen71Co88A4hgADYvhq9UPXT1jytaBHbUSdXLW7nr+2/mABDBAGxdDO9V3auVN9H6OYvAtnp/K3d9/2EcOtUcAIhggO0N4p+o7l/dt7qSRWBLfLl6VfU349DHzQGACAbY+Rjeo7r9ahAfWO1pFdiQb1SvqV5RvXMcOtskAIhggPkM4iu0cmf4/tUNLQK77NvVG1fD98hx6HSTACCCARYriH9mNYbvXV3GIvADTq+OWA3fN3qdLwAiGGAaMXyRar/qLtVB1eWswhI7s3rnavi+dhz6pkkAEMEA0w3iPapbVodUB1dXtgpL4Kut3PF9c3WU8AVABAMsZxDvVv1CK3eID6muYRUmYqz+dTV631J9cBxySAFABAPwfVH8c+cI4utYhAVzUvW21fB96zj0FZMAIIIB2NUg/tFWXke8X3Xr6lJWYc6cXX1sNXzfUr1nHDrTLACIYAA2GsS7Vz9f7b8axTep9rAM2+zM6sPVP1XvWo3eb5oFABEMwFZH8T7VrVaDeP88Os3WOL36wDmi95/HoVPMAoAIBmCno/iarTwyfbPqptVPVLtZhjX6TvW+1eD9p+r949BpZgFABAMw71F8yernVoP4e39cwTKcw7erj7byePP3/vh3r+kFQAQDMJUw/pFzRfGNqj0tsxS+WX3kXMH76XHobNMAIIIBWJYo3rv6qeoGrTw+/ROr//qq1llYZ1dfrI49Z/SOQ/9pGgBEMACcdxxf+lxR/L1/fSXrzI2vVp8+jz8+5zW8AIhgANicOL7cOaL42tW1qmuu/vlyFtp036w+d47A/cz3/vU4dJJ5AEAEA7BzgXzxc0Xxuf98xWpmqWrld+0eX33pXH8cd87/exw61VQAIIIBWMxI3ru6RiuPVF++lTvH5/fny1WXaXF+xdMprdy1Pb8/vnyu2P2KN6QCABEMAOeM5t1WQ/h7YXzp6qLV3qt/Pue/3vtC/rPdqzNauQN7xjr++M4FBO5J49BZPmIAIIIBAABgy+1mAgAAAEQwAAAAiGAAAAAQwQAAACCCAQAAQAQDAACACAYAAAARDAAAACIYAAAARDAAAACIYAAAAEQwAAAAiGAAAAAQwQAAACCCAQAAQAQDAACACAYAAAARDAAAACIYAAAARDAAAACIYAAAAEQwAAAAiGAAAAAQwQAAACCCAQAAQAQDAACACAYAAAARDAAAACIYAAAARDAAAACIYAAAAEQwAAAAiGAAAAAQwQAAACCCAQAAQAQDAACACAYAAAARDAAAACIYAAAARDAAAACIYAAAABDBAAAALJk9TAAwv2ZDl6uGak9rwI560Tj0ATMATOB8NY6jFQDmM4AvXR1T/bQ1YMedVB0wDv2LKQAWm8ehAeYzgC9RvVUAw9y4VHXkbOgmpgAQwQBsbgBftDq8uqk1QAgDIIIBphzAe1Wvr37ZGiCEARDBAFMO4D2rV1X7WwOEMAAiGGDKAbx79bLqIGuAEAZABANMOYBn1Yuqu1sDhDAAIhhg6p5bHWoGEMIAiGCASZsN/WX1YEuAEAZABANMPYD/pHqkJUAIAyCCAaYewI+vft8SIIQB2OZz2DiOVgDY3gD+7erploDJOqk6YBz6F1MAiGCAZQ/gh1bPsQQIYQBEMMDUA/h+rfwqpJk1QAgDIIIBphzA96xenvdiACEMgAgGmHgA37n6x2oPa4AQBkAEA0w5gG9bvaG6iDVACAthABEMMOUAvlX15uqi1gCqb1X7C2EAEQwwxQD+heqo6uLWAIQwwPzwBi0Amx/AP1O9RQAD52Gf6qjZ0E1MASCCAaYQwDds5Q7wpawBCGEAEQww5QC+bnV0dVlrAEIYQAQDTDmAf2Q1gK9oDUAIA4hggCkH8A9Vb6+uZg1ACAOIYIApB/BVqmOqa1oDEMIAIhhgygF8+VYegb6ONQAhDCCCAaYcwJep3lZd3xqAEAYQwQBTDuBLVkdUN7IGIIQBRDDAlAP4YtWbq5+3BiCEAUQwwJQDeK/qDdUtrAEIYQARDDDlAN6zek21rzUAIQwgggGmHMC7V6+oDrQGIIQBRDDAlAN4t+rF1V2sAQhhABEMMOUAnlXPq+5rDUAIA4hggKn7q+qBZgCEMIAIBpi02dBTqt+yBCCEAUQwwNQD+P9Vv2sJQAgDTPCsN46jFQD+L4AfU/25JYAF8K1q/3HoX0wBIIIB1hPAv1k90xKAEAYQwQBTD+AHVC+oZtYAhDCACAaYcgDfu/q7vE8CIIQBRDDAxAP4kOofqj2sAQhhABEMMOUAvn31+mpPawBCGEAEA0w5gG9THV7tbQ1ACAOIYIApB/DNqyOqi1sDEMIAIhhgygH8c9XR1T7WAIQwwPLxTqjAMgXwT1VHCmBgSexTHTUbuokpAEQwsHwBfL3qbdVlrAEIYQARDDDlAP7R6pjqCtYAhDCACAaYcgBfczWAr2INQAgLYQARDEw5gK+6GsDXsAaAEAYQwcCUA/iKqwF8bWsACGEAEQxMOYAv28qbYF3XGgBCGEAEA1MO4H1a+TVIP2kNACEMIIKBKQfwxau3VD9rDQAhDCCCgSkH8N7VG6tftAaAEAYQwcCUA/gi1WurW1sDQAgDiGBgygG8R/XK6nbWABDCACIYmHIA71a9tDrYGgBCGEAEA1MO4Fn1wupe1gAQwgAiGJi6Z1X3NwOAEAYQwcCkzYaeWj3MEgBbHsI3NQUgggF2NoD/uHq0JQC2JYSPFMLA5M6T4zhaAViUAP696k8tAbCtvlUdMA693xSACAbYvgB+RHWYJQCEMIAIBqYewL9ePc8SAEIYQAQDUw/gX6lenPcwABDCACIYmHgA3616RbW7NQCEMIAIBqYcwHesXlPtaQ0AIQwggoEpB/B+1ZuqvawBIIQBRDAw5QD+peqt1cWsASCEAUQwMOUAvkn1tuqS1gAQwgBbwbutAvMSwDeujhDAAAtnn+rI2dBNTQGIYIBdC+CfqI6qLm0NACEMIIKBKQfwdaqjq8tbA0AIA4hgYMoBfK3q7dWVrQEghAFEMDDlAL7aagBf3RoAQhhABANTDuArVcdUP2wNACEMIIKBKQfw5Vp5DfCPWwNACAOIYGDKAXypVt4F+gbWABDCACIYmHIAX6J6a/XT1gAQwgAiGJhyAF+0elN1M2sACGEAEQxMOYD3ql5X3dIaAEJYCAMiGJhyAO9R/UN1gDUAEMKACAamHMC7Vy+r7mQNAIQwIIKBKQfwrPqb6h7WAEAIAyIYmLrnVL9qBgCEMCCCgUmbDf1F9RBLACCEAREMTD2An1w9yhIACGFABANTD+DHVX9gCQCEMDDX59ZxHK0AbDSAH1X9hSUA2KBvVQeMQ+83BSCCgXkN4IdUz7UEAEIYEMHA1AP4V6u/rWbWAEAIAyIYmHIA36N6ebW7NQAQwoAIBqYcwHeqXl3tYQ0AhDAggoEpB/AB1Ruri1gDACEMiGBgygF8y+ot1UWtAYAQBkQwMOUAvll1VHUJawAghIFFtZsJgF0I4J+p3iqAAdhB+1RHzoZuagpABANbGcA3rI6sLmUNAIQwIIKBKQfwj1dvqy5nDQCEMCCCgSkH8I9Ux1RXsgYAQhgQwcCUA/iHVgP4atYAQAgDIhiYcgBfeTWAr2UNAIQwIIKBKQfw5aujq+tYAwAhDIhgYMoBfOlWfg/wT1gDACEMiGBgygF8yeqI6sbWAEAIAyIYmHIAX6w6vLqJNQAQwoAIBqYcwHtVr69+yRoACGFABANTDuA9q1dX+1kDACEMiGBgygG8e/X31R2sAYAQBkQwMOUA3q16cXVXawAghAERDEw5gGfVX1f3tQYAQhgQwcDUHVY9yAwACGFABAOTNht6SvVwSwAghAERDEw9gP+w+l1LACCEhTAs/dl4HEcrwLQD+NHVUy0BAP/rW9UB49D7TQEiGJhWAP9G9SxLAIAQBkQwTD2Af616YTWzBgAIYUAEw5QD+N7V3+V1/wAghAERDBMP4IOrV1V7WAMAhDAggmHKAXz76nXVRawBAEIYEMEw5QC+dfXmam9rAIAQBkQwTDmAf7E6srq4NQBACAPnz5vmwOIH8M9VbxHAALAp9qmOnA3d1BQggoH5C+CfauUO8D7WAAAhDIhgmHIAX696W3UZawCAEAZEMEw5gK9dHV1dwRoAIIQBEQxTDuBrVG+vrmoNABDCgAiGKQfwVVcD+BrWAAAhDIhgmHIAX6GVR6CvbQ0AEMKACIYpB/BlWnkTrOtZAwB2PIRvZgoQwcDWBfA+rfwapJ+yBgDMRQgfIYRBBANbE8AXr95S/Zw1AEAIAyIYphzAe1dvrH7RGgAghAERDFMO4ItUr6lubQ0AEMKACIYpB/Ae1Suq21sDAIQwIIJhygG8W/WS6hBrAIAQBkQwTDmAZ9ULqntbAwCEMCCCYeqeWf2aGQBACAMiGCZtNvTU6jcsAQBCGBDBMPUA/qPq0ZYAACEMbMP5exxHK8DOBfDvVk+xBABM0req245D7zMFiGBw8Q09vPorSwCAEAZEMEw9gB9UPa+aWQMAhDAggmHKAXzfVn4XsNfkA4AQBraZQzhsbwDftXqxa481OLH6uhlgy51SfckMbCFvlgUiGJYugO9Q/X21uzXYRSdXt62+agrYluvtVtX/mAIhDCIY2HgA71e9utrTGuyi06o7jkMfrM42B2y5s8ehz1S3ro43B0IYRDCw/gC+RfX6ai9rsIvOqO46Dv3T9w7nJoGtj+CqcehTrdwR/opJEMIggoG1B/BNqjdXF7MGaziI/8o49OZzH86BrY/g1RA+tpU7wl6KgBAGEQysIYBvVB1RXdIarMFDxqF/OL/DObD1Ebwawv9e3ab6mmkQwiCCgQsP4OtXb6subQ3W4NHj0AvO49/3u+xg6/3AdTYOfWI1hL1DO0IYRDBwAQF8neqY6vLWYA2eOA49/Xz+M3eCYeud53U2Dn2s2reVX1cGQhhEMHCuAL7WagBf2RqswTPGoT9c6+Ec2PoIXg3hj1b7Vd8wE0IYRDDwfwF8tdUA/iFrsAYvrh653sM5sPURvBrCH672r75pKrY4hI8UwiCCYREC+EqrAfwj1mANXlM9cBwu9DW/Ihi23oW+9n4c+lB1QHWSudhClxTCIIJh3gP4cq28CdaPW4M1OLK69zh01mYczoEN26UfNo1DH6huW33LZAhhEMGwjAF8qdWYuaE1WIP3VIeMQ6dv5uEc2PoIXg3h91e3q042G0IYRDAsUwBfonpr9TPWYA0+XN1hHDp1Kw7nwNZH8GoI/3N1++oU0yGEQQTDMgTwRas3lW9KrMl/VAeMw5pfTyiCYc4ieDWE31MdWH3bfAhhEMEw5QC+SPXa6pbWYA0+X+03Dn1tOw7nwJqt67X349C7qjvUmp7uACEMIhgWJoD3qF7VypuiwK76crXvOPSl7TycA2uy7h82jUPvrO5YfceMCGEQwTClAN6tell1J2uwBie2cgf4cztxOAe25zobh95eHVSdZkqEMIhgmEIAz6q/qe5hDdbg5Oq249And/JwDmzPdTYOHV3dufquORHCIIJh0T2nup8ZWIPTqoPGoQ/Ow+EcuPCG3ZS/yNCR1cFCGCEMIhgW1mzo6dVDLMEanFHddfV1gnNzOAcu0Kb9sGkcemt1l9rl3wUOQhhEMMxNAD+p+m1LsMaD9K+MQ2+ex8M5sD3X2erXgLu18kMxEMIggmEhAvgPqsdZgjV6yDj0D/N8OAe25zobh95Y3V0II4RBBMMiBPCjqidbgjV69Dj0gkU4nAPbc52NQ6+v7lWdaWKEMIhgmNcAfnD1F5ZgjZ44rrx+fGEO58D39+qW/YWHXlPduzrLzAhhEMEwbwH8q9VzLcEaPWMc+sNFPJwD/2tLf9g0Dv1jdV8hjBAGEQzzFMB3b+V3Ac+swRq8uHrkIh/Oge25zsahV1aHuqYRwiCCYR4C+KDq5dXu1mANXlM9cBy2/E6tAzNMIIJXQ/jvW/m9865rhDCIYNixAD6gelW1hzVYgyOre4/Dtjza6LAM29Cn2/Y3Gvq76gGubYQwiGDYiQC+ZfW6ai9rsAbvqQ4Zh07fpr+fgzJM7Dobh15cPSiv+UcIgwiGbQzgm1Vvqi5qDdbgw9UdxqFTt/O8bHaYVgSvhvCLqge7xhHCIIJhOwL4p6u3VpewBmtwbHXAOHTS1A/nIIK3LYRfUD1MCCOEQQTDVgbwDaqjqktZgzX4fLXvOPS1ZTmcgwjethD+6+q3fAgQwiCCYSsC+Mero6vLWYM1+PJqAH9p2Q7nsER29E7sOPTs6uE+DAhhEMGwmQH8w9Ux1ZWswRqcWO0/Dn1uB/9/EMGwBNfZOPTM6lE+FAhhEMGwGQF89ert1dWswRqcXN12HPrETp+NfShg+hG8GsKHVY/24UAIgwiGjQTwlVcD+FrWYA1Oqw4ahz7ocA4ieJtD+OnV7/qQIIRBBMN6AvjyrbwG+DrWYA3OqO46Dr3T4RxE8A6F8J9Xf+DDghAGEQxrCeBLt/Iu0D9hDdZ4ED50HHqzwzkslbl72cE49KfVE3xoEMIggmFXAviS1RHVja3BGj1kHHrlHIY5sITX2Tj0pGrw4UEIgwiGCwrgi1WHVzexBmv06HHoBfN4DvahgeWM4NUQ/qPqiT5ECGEQwXBeAbxX9frql6zBGj1x9c1oHM5BBM9jCP9h9Sc+TAhhEMFwzgDes/rHaj9rsEbPWD1gOpzD8pr7Jy7GocdVf+ZDhRAGEQzNhnavXl7d0Rqs0YurR875/48iGFxn3wvh36ue5sOFEAYRzHIH8G7V31Z3swZr9JrqgeMw93eARDC4zs4Zwo+p/tKHDCEMIpjl9dzqV8zAGh1Z3XscOmsRzrw+XCCCzxXCv109w4cNIQwimCUzGzqs+nVLsEbvqQ4Zh053OAcW9Tobhx5RPduHDiEMIpjlCeA/rR5hCdbow9UdxqFTHc6Bczblgv7//VvVX/vwIYRBBDP9AH5C9XuWYI2OrW47Dp20YP9/i2BwnZ13ua+8p8HDquf7ECKEQQQz3QD+neqPLcEafb7adxw6weEcmNJ1thrCD6n+xocRIQwimOkF8MPyqyFYuy+vBvCXFvWM60MIIngXQvjXW/m1byCEQQQzkQC+f/UsS7BGJ1b7j0OfczgHLqgjF/4fYOjs6gHV3/lwIoRBBLP4AXyv6oXVzBqswcmtvAb4Ewv+zyGCwXW2lhC+X/VyH1KEMIhgFjeAD65e6vOVNTqtOmgc+qDDObBM19lqCP9q9UofVoQwiGAWL4Bvt/pNfA9rsAZnVHcdh97pcA4s43U2Dp1V3bd6lQ8tQhhEMIsTwLeuXltdxBqs8SB76Dj05imdZ31YQQSvM4TvU73Gh5dtCuFfMAUiGNYfwL9YvbHa2xqs0UPGYXKPALoTDNvQjJP8hxo6s7pn9TofYrYhhI8QwohgWF8A/2z1luri1mCNHj0OvWCC/1wiGFxnGw3he7Tyw2UQwohgEzBnAfyT1ZHVPtZgjZ44Dj3d4RxwnZ1nCJ9R3a063IcaIYwIhvkJ4OtWb6suaw3W6Bnj0B9O+fzqQwwieBNC+PTqLtVbfbgRwohg2PkAvnZ1THVFa7BGL64e6XAOuM52OYQPbuWpKxDCiGDYoQC+xmoAX9UarNFrqgeOw+TvlIpg2IY+XJp/0KHvVndu5ekrEMKIYNjmAL7KagBf0xqs0ZHVvVd/BcjUiWBwnW12CJ9W3Wn1ezAIYUQwbFMAX2H1m++PWoM1ek91yOpjfQ7ngOtsfSH8neqg6p0+/AhhRDBsfQBfppXHsK5nDdbow9UdxqFTl+ms6sMOIniLQvjU6g7Vu3wKIIQRwbB1AbxPK4+y/pQ1WKNjq9uOQyc5nAOb3YNL+w8+9O3q9q08ZQNCGBEMmxzAF6veXP2cNVijz1f7jkMnLOE/uwgG19l2hPDtqn/2qYAQRgTD5gXw3tUbq5tbgzX68moAf8nhHHCdbVkIn1Ldtnq/TweEMCIYNh7Ae1avrm5jDdboxGr/cehzDueA62zLQ/jk6oDqA9ZACCOCYf0BvHv1yupAa7BGJ7fyGuBPLPu51KcCiOBtDOFvrYbwh6yBEEYEw9oDeLfqpdUh1mCNTqsOGoc+aAqHc9iO9jPB94XwN6v9W3lHfhDCiGDYxQCeVc+v7m0N1uiM6q7j4HdXimBwne1gCH+j2q/6qDUQwohg2DXPqB5gBtZxED10HHqzKRzOwXW24yF8YrVv9TFrIIQRwXABZkN/Xv2mJViHh4xDrzSDwzm4zuYmhL/eyhtbfsIaCGFEMJx3AA/VYyzBOjx6HHqBGX7wDGoCcJ3tcAh/rbp19UlrIIQRwfD9AfzY6v9ZgnV44jj0dDOcJ3eowHU2DyF8Qit3hP/DGghhRDCsBPBvVX9mCdbhGePQH5rB4RxcZ3Mfwl9p5Y7wp6yBEEYEs+wB/MDqryzBOry4eqQZHM7BdbYwIXx8davqM9ZACCOCWdYAvk/1vGpmDdboNdUDx8Fr8RzOwXW2YCH85dUQ/qw1EMKIYJYtgO9SvcTnEutwZHXvcegsU1z4edME4DqbwxD+0moI/6c1EMKIYJYlgA+sXlHtbg3W6D3VIePQ6abYJe5QgetsXkP4uNUQ/rw1EMKIYKYewPu28ijrntZgjT5S3WEcOtUUDufgOptECH+xumX1BWsghBHBTDWAb1G9odrLGqzRsdUB49BJpnA4B9fZpEL4C63cEf5vayCEEcFMLYB/vnpzdTFrsEafr/Zd/T2TOJyD62x6IfxfrdwRPs4aCGFEMFMJ4BtVR6x+4YG1+PJqAH/JFOs7W5oAXGcLEsL/2cod4f+xBkIYEcyiB/D1q7dVl7EGa3Ritf849DlTrJs7VOA6W6QQ/uxqCH/ZGghhRDCLGsA/Wh1dXd4arNHJ1W3HoU+YwuEcXGdLFcKfXg3h462BEEYEs2gBfM3q7dVVrMEanVYdNA590BQO5+A6W8oQ/lR16+qr1kAII4JZlAC+2moA/5A1WKMzqruOQ+80hcM5LEqzmWBLQvg/VkPYmyIihBHBzH0AX7GVR6B/xBqsI9gOHYfebAqHc1iwr11sTQh/srpN9TVrIIQRwcxrAF92NYCvaw3W4SHj0CvN4HAOrjPOEcIfr/atvm4NhDAimHkL4EtVR1Y3tAbr8Jhx6AVmcDgH1xnnEcL/Vu1XfcMaCGFEMPMSwBev3lL9rDVYhyeNQ08zg8M5uM64gBD+SCt3hL9pDYQwIpidDuCLVm8qXyhYl2eMQ08ww9adG00ArrMJhfCHW7kjfJI1EMKIYHYqgC9SvbaV3+cHa/Xi6pFm2FLuUIHrbGoh/KFq/+pb1kAII4LZ7gDeo/qH6rbWYB1eUz1wHNxBcTgH1xlrDuEPVAdUJ1sDIYwIZrsCeLfq76o7W4N1OLK69zh0likczsF1xjpD+P3V7apTrIEQRgSz1QE8q/6muqc1WIf3VIeMQ6ebwuEcptJjJtixEH5vdfvq29ZACCOC2UrPru5nBtbhI9UdxqFTTeFwDhPih007G8Lvrg4s31sQwohgtsBs6OnVQy3BOhxbHTAO3tHT4RxcZ2x6CP9TdYfqO9ZACCOC2cwAfmL125ZgHT5f7TsOnWAKh3NwnbFFIfyO6o5CGCGMCGazAvj3q8dbgnX48moAf8kUDufgOmOLQ/iYVt608zRrIIQRwWwkgB9Z/YklWIcTq/3Hoc+ZwuEcptxeJpirED6qOrj6rjUQwohg1hPAD67+0hKsw8nVbcehT5jC4Rwmzg+b5i+Ej6gOKb+JACGMCGZtAXxo9VxLsA6nVQeNQx80hcM5uM7YoRB+S3VXIYwQRgSzqwF89+pF1cwarNEZ1d3GoXeawuEcXGfscAi/qbr76vcmEMKIYM43gA+qXlbtbg3WcRA8dBw63BQO57BMrWWCuQ7hN1T3qM60BkIYEcx5BfD+1auqPa3BOjxkHHqlGUQwuM6YsxB+XXUvIYwQRgRz7gD+5er11V7WYB0eMw69wAzzd/YzAYhgahx6dXWf6ixrIIQRwTQbuml1eHVRa7AOTxqHnmYGh3NwnTHnIfyq6leEMEIYESyAf7p6a3UJa7AOzxyHnmAGh3NwnbEgIfyK6n4+bghhRPDyBvANqqOqS1uDdXhx9QgzOJzDsneVCRYuhF9W3d/XSIQwInj5AvjHqqOry1mDdXhN9cBxcPgTweA6M8FChvBLqwfmhxgIYUTw0gTwD1fHVFeyButwZHXvcfCaqkU455kARDDnG8J/W/26r5UIYUTw9AP46qsBfHVrsA7vrQ4Zh043hcM54DqbQAi/sHqIEEYII4KnG8BXWg3gH7YG6/CR6sBx6FRTOJwDrrMJhfDzq9+wBEIYETy9AL5cK68B/jFrsA7HVgeMQyeZwuEc+P6GMsEkQvi51W9ZAiGMCJ5OAF+6lXeBvoE1WIfPV/uNQyeYQgQDrrMJh/CzqkdaAiGMCF78AL5EK78H+KetwTocX+07Dh1nisU805kARDBrCuG/qn7HEghhRPDiBvBFq8Orm1qDdTixlTvAnzOFwzngOluiEP6L6rGWQAgjghcvgPeqXl/9sjVYh5Or241DnzDFQh/kHM5hGy41E0zy6+dTq9+3BEIYEbw4Abxn9apqf2uwDqdVB41DHzCFAzpwofywaboh/JTq8ZZACCOC5z+Ad69eXh1kDdbhjOpu49A7TeGADrjGhHBPrv6fJRDCiOD5DeBZ9aLqbtZgnQe5Q8ehw00xrTOcCUAEs6EQ/uPqjy2BEEYEz6fnVoeagXV6yDj0SjM4oAOuMX4ghP9f9WRLsI0h/IumEMFciNnQX1YPtgTr9Jhx6AVmcEAH1t5HJliaEH589RRLsE0h/FYhLIK54AD+k/xyd9bvSePQ08wgggHXGBcawr9fPdUSCGERzM4G8OPzFv6s3zPHoSeYYdpnNhOACGZTQ/ix1V9YAiEsgtmZAP6d6omWYJ1eUj3CDA7ogGuMNYfw71R/ZQmEsAhmewP4oeURVtbttdUDxsFdQgd0YKM9ZIKlDeFHVs+0BEJYBLM9AXz/6tmWYJ2Oqu41Dp1lChEMbDiEXGPL/fF/ePUcSyCERTBbG8D3rF5YzazBOry3OngcOt0UIhjYeAOZgOo3q+eZASEsgtmaAL5z9Xf2Z50+Uh04Dp1qCod0YFP4IROtvrTooa3cpAAhLILZxAC+bfUP1R7WYB2OrQ4Yh04yhUM64PpiS0L416sXWQMhLILZnAC+VStvZHQRa7AOn6/2G4dOMIVDOrC57WMCzhXCD2rlty+AEBbBbCCAf6F6U3VRa7AOx1f7jkPHmUIEA64vtjyEz65+rXqZNRDCIpj1BfDPVm+pLm4N1uHEVu4Af84UDumA64ttDeH7VX9vDYSwCGZtAXzD6sjqUtZgHU6ubjcOfcIUzmMmABHMtofwWdWhrbyfCwhhEcwuBPB1q6Ory1qDdTitOmgc+oApcEgH1xc7GsL3rV5tDYSwCOaCA/hHqmOqK1qDdTijuts49E5T4JAOW985JuBCQvjM6l6tvMEpCGERzHkE8A9Vb6+uag3WGTuHjkOHmwIRDK4v5iqE71m93hoIYRHM9wfwVVYD+JrWYJ0eOg690gw4pIPri7kL4TOqu7fyGz9ACItgZkNXaOU1wD9qDdbpMePQ883AeZ29TAAimLkJ4btWb7YGQlgEL3sAX6Y6qrq+NVinJ41DTzMDDumw/V1jAtYYwqdXd6mOsAZCWAQvawBfcvWL4I2swTo9cxx6ghkQweD6YmFC+LvVwa3cBAEhLIKXKoAv1srjMD9vDdbpJdUjzIBDOri+WLgQPq26UysvhwMhLIKXIoD3rt5Q3cIarNNrqweMg0fxcEgH1xcLHMIHtfLGqCCERfCkA3jPVn5p+r7WYJ2Oqu41Dp1lCnblnGUCEMHMbQh/p7pj9U/WQAiL4KkG8O7VK6oDrcE6vbc6ePWNNcAhHXa4YUzAJoTwqatnw3dbAyEsgqcWwLu18hrOu1iDdfpIdeDqN0sQweD6Yjoh/O3q9q38sBuEsAieRADPqudV97EG63RsdcA4dJIpcEgH1xeTDOFTqttV77MGQlgET8FfVQ80A+v0+Wq/cegEU+CQDq4vJh3CJ1e3rf7FGghhEbywZkN/Vv2WJVin46t9x6HjTMF6z1QmANcXCxXC36oOqD5oDYSwCF7EAP5/1WMtwTqd2Mod4M+Zgg1wpwpcXyxeCJ9U7V/9qzXYphA+QgiL4M0I4MdUgyVYp5Or241DnzAFDung+mIpQ/ib1X6tvDEmbLVLCGERvNEA/s3qzy3BOp1WHTQOfcAUOKSD64ulDuFvVPtW/2YNhLAInucAfkD1DEuwTmdUdxuH3mkKHNLB9QXj0ImrIfxxayCERfA8BvB9qudXM2uwzsPUoePQ4aZgM89PJgDXFwsfwl+rblN90hoIYRE8TwF8SPUS27ABDx2HXmkGNpk7VeD6YhohfEJ16+rfrYEQFsHzEMAHVq+sdrcG6/SYcej5ZsAhHVxfcAEh/NXVED7WGghhEbyTAXyb6tXVntZgnZ40Dj3NDDikg+sLdiGEv7Iawp+2BkJYBO9EAN+8emO1tzVYp2eOQ08wAw7p4PqCNYTwl6tbVZ+xBkJYBG9nAP989ebqYq4L1ukl1SPMwFaflUwAri8mGcL/08od4c9ZAyEsgrcjgH+qOqLax/XAOr22esA4OECx5dypAtcX0w3h41q5I/xf1kAIi+CtDODrVW+rLuM6YJ2Oqu41Dp1lChzSwfUFGwzh/14N4c9bAyEsgrcigH+0Oqa6gs9/1um91cHj0OmmwCEdXF+wSSH8hdUQ/qI1EMIieDMD+JqrAXwVn/es00eqA8ehU03Bdp6NTACuL5YihD+/GsL/bQ2EsAjejAC+6moAX8PnO+t0bHXAOHSSKdhm7lSB64vlCeH/XA3hL1kDISyCNxLAV1wN4Gv7PGedPl/tNw6dYAoc0sH1BVscwp9bDeH/sQZCWASvJ4Av28qbYF3X5zfrdHy17+q7N4JDOri+YDtC+DOt/Pqk462BEBbBawngfaojq5/0ec06ndjKHWC/vw+HdHB9wXaH8KdauSP8FWsghEXwrgTwxau3VD/r85l1OqW63Tj0CVOw0+cgE4Dri6UN4WNbuSP8VWsghEXwBQXw3tUba3l/CTQbdlp1x3HoA6ZgDrhTBa4vljuE/726TXlvEoSwCD7vAL5I9dpWfmIG63Fmdbdx6J2mwCEdXF8wJyH8iWrf6uvWQAiL4HMG8B7VK6vb+bxlA4ehXxmHDjcFDung+oI5C+GPrYbwidZACIvgZkO7VS+tDvb5ygY8dBx6pRlwSIfl6QoTsGAh/NHVEP6GNRDCSxzBs6FZ9cLqXj5P2YDHjEPPNwMO6bBU/JCJRQzhj1T7Vd+0BkJ4SSO4elZ1f5+fbMCTxqGnmQGHdHB9wYKE8L9W+1cnWQMhvGQRPFsJl4f5vGQDnjkOPcEMOKSD6wsWLIQ/WB1QfcsaCOElieDZ0B9Xv+PzkQ14SfUIM+CQDq4vWNAQ/pfqttXJ1kAITzyCZ0O/V+7esSGvrR4wDl5viUM6LHNDmIAJhPD7qttXp1gDITzRCJ4NPaL6U59/bMBR1b3GobNMgUM6LDU/ZGIqIfye6sDq29ZACE8sgmdDv14d5vOODXhvdfA4dLopcEgH15cJmFAIv6u6Q3WqNRDCE4ng2dCvVM/1+cYGfKQ6cBx8c8AhHXB9MckQfmd1x+o71kAIL3gEz4buVv1t0/rVTmyvY6sDxsGvEsAhHfi/ZjABEwzht1cHVadZAyG8oBE8G7pj9fJqd59jrNPnq/3GoRNMgQgGXF8sQQgfXd25+q41EMILFsGzof2qf6z29LnFOh2/GsDHmYJFPcuYAEQwrCOEj6wOFsII4QWK4NnQL1Wvr/byOcU6nbgawJ81BQ7pgOuLJQzht1Z3KW8IihCe+wieDd20Ory6mM8l1umU6nbj0CdMgUM64PpiiUP4zdXdqjOswbKH8NxG8GzoxtVbq0v6HGKdTqsOGoc+YAoc0oEL6gMTsCQh/Mbq7kKYZQ/huYzg2dBPVEdVl/a5wzqdWd1tHHqHKRDBgOsL/jeEX1/da/WsBEsZwnMXwbOhH6uOri7vc4YNHGYOHYcONwVTOreYAEQwbFIIv6a6d3WWNVjGEJ6rCJ4NXas6prqyzxU24KHj0CvMgEM64PqC8w3hf6zuK4TZ5hC+uQj+/gC+evX26uo+R9iAx4xDzzcDDumA6wsuNIRfWR3qGmAbQ/it8xDCcxHBs6ErtXIH+Id9brABTxqHnmYGHNKBtbaACVjiEP776n6+z7BMIbzjETwbulwrrwH+MZ8TbMAzx6EnmAERDLi+YM0h/HfVr7kWWJYQ3tEIng1dqpV3gb6BzwU24CXVI8zA1M8oJgARDFsYwi+pHuT7DcsQwjsWwbNh5R+8+mmfA2zAa6sHjIMv2DikA64v2GAIv6h6sBBm6iG8IxE8G7podXh1Mx97NuCo6l7j4F0NcUgHNnb2NwH8bwi/oHqY64Iph/C2R/BsaK/qddUv+5izAe+tDh6HTjcFIhhwfcGmhvBfV79pCaYawtsawbOhPapXVQf4WLMBH6kOHIdONQXLdCYxAYhg2MYQfk71cEswxRDetgieDe1evbw6yMeYDTi2OmAcOskUOKQDri/Y0hB+ZvUoSzC1EN6WCJ4Nzaq/qe7uY8sGfKHabxw6wRQ4pAOuL9iWED6serQlmFIIb9ed4OdWv+pjygYcX+07Dh1nChzSgc0+55sALjCEn179riWYSghveQTPhv6ylbdah/U6sZU7wJ81BSIYcH3BjoTwn1d/YAmmEMJbGsGzoSdXj/QxZANOqW43Dn3CFCz7+cMEIIJhh0P4T6snWIJFD+Eti+DZ0OPy0yI25rTqoHHoA6YAh3RwfcFchPCTqsESLHIIb0kEz4Z+u3qSjxkbcGZ1t3HoHaYAh3TY6nO9CWBNIfxH1RMtwaKG8KZH8GzoodXTfazY4GH/0HHocFOACAbXF8xlCP9h9SeWYBFDeFMjeDZ0v+rZPkZs0EPHoVeYARzSwfUFcx3Cj6v+zBIsWghvWgTPhu7Ryu8Cnvn4sAGPGYeebwb4wbOGCUAEwxyG8O9VT7MEixTCmxLBs6E7VS9r+37vMNP0pHHwRRQc0sH1BQsWwo+p/tISLEoIbzhaZ0O3rV5V7eHjwQY8cxy85T44pMPOnOFNABsO4d+unmEJFiGENxTBs6FbVq+tLuLjwAa8pHqEGUAEg+sLFjqEH5H3B2IBQnjdETwb+oXqTdVF7c8GvLZ6wDj4KTw4pIPrCyYQwr9Z/bUlmOcQXlcEz4Z+pnrL6t8U1uuo6l7j0FmmgAs/V5gARDAsiIeVNzplfkN4zRE8G7rharxcyt5swHurg8eh000BDung+oLpWH3C7yGt/OYYmLsQXlMEz4Z+vDq6uqyd2YCPVAeOQ6eaAhzSYR7O7CaALQnhB1UvtgbzFsK7HMGzoR+pjqmuaF824NjqgHHoJFOACAbXF0w+hB9QvdQazFMI71IEz4Z+aDWAr2ZXNuAL1X7j0AmmAId0cH3BUoTw2dX9q5dbg3kJ4QuN4NnQlVcD+Fr2ZAOOr/Ydh44zBazvHGECEMGwwCH8q9UrrcE8hPBuFxLAl18N4OvYkQ04sZU7wJ81BTikwzye0U0AWx7CZ1X3rV5lDXY6hHe7gAC+dPW26vr2YwNOqW43Dn3CFCCCwfUFSx/C96leYw12MoR3O58AvmR1RHUju7EBp1UHjUMfMAU4pIPrCxiHzqzuWb3OGuxUCO92HgF8serN1U3sxQacWd1tHHqHKcAhHVxfwLlC+B7VG63BToTwbucK4L2qN1S3sBMbPEwcOg4dbgrYvDODCUAEw4RC+IzqbuW8yPaH8G7nCOA9q1dX+9qHDXroOPQKM4BDOizKedwEsCMhfHp1l+ot1mAbQ/jhu60G8O7V31d3sAsb9Nhx6PlmABEMri9gF0P4kOpIa7ANDqvutdtsaLfqxdVdbcIGPXkceqoZwCEdXF/AGkL4u9WdW/nNNLAVzqh+fRx61Dh01m7Vc1v5nV2wEc8chx5vBnBIB9cXsI4QPq26U3WMNdhkX6/2H4de8L1/Y7fqo3ktDBvzkuoRZoCtPR+YAFxfMPEQ/k51UPntImya/6huMg6985z/5m7j0HOr3/ANgHV6bfWAcfD5A1vMnSpwfcEyhPCprbxP0buswQYdUd10HPrcuf+D3VY/2YQw63FUda9x6CxTgEM6uL6ATQzh21fvsQbrdFh1h3HoW+f1H+52jk82IcxavLc6ePUd/QCHdHB9AZsZwt+ublf9szVYg+97A6zz+y/tdq5PNiHMrvhIdeDqT+mAbToPmABEMCxZCJ9S3bZ6vzXYBT/wBli7FMFCmF1wbHXAOHSSKcAhHaZy1jYBzG0In1wdUH3AGlyA83wDrF2OYCHMBfhCtd84dIIpQASD6wvYphD+VrV/9SFrcB7O9w2w1hTBQpjzcHy17zh0nCnAIR1cX8A2h/BJqyH8YWtwDod1AW+AteYIFsKcw4mt3AH+rCnAIR1cX8AOhfA3qv2qj1pj6e3SG2CtK4KFMNUp1e3GoU+YAnb2e78JwPUFQrgTq32rj1ljae3yG2CtO4KF8FI7rTpoHLwRAcwBd6rA9QWstMnXq9uUmzRLaE1vgLWhCBbCS+nM6m7j0DtMAQ7p4PoC5iyEv1bduvqkNZbGmt8Aa8MRLISX7jBw6Dh0uCnAIR1cX8CchvAJrdwR/g9rTN5hreMNsDYlgoXw0njoOPQKM4BDOri+gDkP4a+0ckf4U9aYpA29AdamRbAQnrzHjkPPNwPM3/d5E4DrCzjPNjm+ulX1GWtMyobfAGtTI1gIT9aTx6GnmgHmkjtV4PoCzr9Nvrwawn6l5zRsyhtgbXoEC+HJedY49HgzgEM6uL6ABQ3hL62G8H9aY6Ft2htgbUkEC+HJeEn1cDOAQzq4voAFD+HjVkP4v6yxkA5rE98Aa8siWAgvvNdWDxgHHztwSAfXFzCJEP7iagh/wRoLY0veAGtLI1gIL6yjqnttxycasPEvsyYA1xewy23yhdUQ/qI15t6WvQHWlkewEF44760OHodONwUsBHeqwPUFrK1N/ms1hI+zxtza0jfA2pYIFsIL4yPVgePQqaYAh3TA9QUTDuH/XA3hL1lj7mz5G2BtWwQL4bn3qeqAcegkU4BDOuD6giUI4c9Wt66+bI25cVjb8AZY2xrBQnhufaHadxw6wRTgkA7837HFBDD5EP50K3eEj7fGjtrWN8Da9ggWwnPn+NUA9poIcEgHvp8fMsFyhPCnWrkj/BVr7IhtfwOsHYlgITw3Tlz9hPusKcAhHXB9wRKH8H9UtylPRm6zHXkDrB2LYCG8406pbjcOfdwU4JAOuL5ACPfJ1RD+mjW2xY69AdaORrAQ3jGnVQeNQx8wBTikA64v4H/b5OPVvq08osvWOawdfAOsHY9gIbztzqzuNg69wxTgkA5c8BHFBLCUIfxvqyF8ojU23Vy8AdZcRLAQ3tbD8qHj0OGmAId0YJe+bwLLGcIfrfarvmmNTTM3b4A1NxEshLfFQ8ehV5gBHNIB1xdwoW3y4dUQPskaGzZXb4A1VxEshLfUY8eh55sBHNIB1xewy23yoWr/mq/Xri6YuXsDrLmLYCG8JZ48Dj3VDOCQDqztSGICYPXNZA+oTrbGmh3WHL4B1lxGsBDeVM8ahx5vBpjsN2ZfI2Hr+CET8L3vt++vbtvKrxnlws31G2DNbQQL4U3xkurhZoDpf282AYhgYMvb5J+r21fftsYFmvs3wJrrCBbCG/La6gHuEoGDOuDaAjatTd5dHVidao3ztBBvgDX3ESyE1+Wo6l6L9OgB4KAOri1gQUL4n6o7VN+xxvdZmDfAWogIFsJr8t7q4HHodFOAgzqwseOHCYDzaZN3VHcUwv/rsBboDbAWJoKF8C75SHXgOHg8AxzUgU3gB0zABbXJMdWdqtOWeIaFfAOshYpgIXyBPlUdMA5+mTc4qAOuLWCb2uRt1cHVd5fwH39h3wBr4SJYCJ+nL1T7jkMnmAIc1AHXFrCtbXJEdUgt1csRF/oNsBYygoXw9zl+NYCP8yUIHNQB1xawI23yluouSxLCC/8GWAsbwUK4qhNbeQThs770gIM6sPlHDRMAa2iTw6u7t/I62ak6rAm8AdZCR/CSh/Ap1e3GoY/7kgO+75oAtoQfMAFrbZM3VPeozpzYP9qk3gBr4SN4SUP4tOqgcegDvtQADuqwZecLP2AC1vO143XVvSYUwpN7A6xJRPCShfCZ1d1XfzcZgAgG1xUwf23y6uo+tfB3TSf5BliTieAlCeGzq0PHoTf50gI4rMPWHitMAGywTV5V/coCh/Bk3wBrUhG8BCH8sHHoFb6kACIYXFfAQrTJK6pfXcCvKYc14TfAmlwETziEHzsOPc+XEuC8vuyZAEQwMLdt8vLq/gvydWUp3gBrkhE8wRB+8jj0VF9CAId1cF0BC9kmL60eOOdtsjRvgDXZCJ5QCD9rHHq8Lx2Awzq4roCFbpO/rR40p22yVG+ANekInkAIv7R6uC8ZgMM6bP8RwgTAFrTJ31QPmbOvMUv3BliTj+AFDuHXVb/mdxQCIhhcV8Ck2uT5q20yDw5rCd8AaykieAFD+Kjqnsv4YnRgfV/iTAAiGFi4NvmtHfx/YanfAGtpIniBQvi91cHj0Ok+DQGHdXBdAZMN4WdVj9yBv/XSvwHWUkXwAoTwR6sDx6FTfQoCDuuws0cGEwDb0CZ/Vf32Nv4tvQHWMkbwHIfwp1r5icxJPv0AEQyuK2BpQvgvq8dsw9/KG2AtcwTPYQh/odp3HDrBpx7gsA6uK2DpQvhp1e9t4d/isLwBlgieoxA+fjWAj/NpB6z3y5kJQAQDC98mf1Y9bpP/st4ASwTPXQif2Moj0J/1KQc4rIPrClj6EP6T6g836S/nDbBE8NyF8CnV7cahj/t0AxzWYf6OByYAdqhNnlj90Qb/Mt4ASwTPXQifVh00Dn3ApxoggsF1BXCuNhmqJ63zf+4NsETw3IXwmdXdx6F3+DQDHNbBdQVwPm3yhOpP1/g/OyxvgCWC5yyEz64OHYfe5FMM2MwvXSYAEQxMsk3+oPrzXfivegMsETy3IfywcegVPr0Ah3VwXQHsYpv8bvX0C/iveAMsETy3IfzYceh5PrUAh3VYjKOACYA5apNHt/Ko87l5AywRPLch/ORx6KkWBUQwuK4A1tkmj6qeeY5/yxtgieC5DeFnjUOPtyTgsA6uK4ANtsnDq+fkDbC2xB4m+P4Qng1VPbuareF/+tLq4RYEtvrLlAlABANL0ya/YYWt4U7weYRwa7sj/Lrq18bB4RRwWIdF/NZvAgAR7Lvhrofw26p7entyQASD6woAETz1EP7n6s7j0OnWAhzWwXUFgAiecgh/tLr9OHSqlQCHdXBdASCCpxzCn2rll1SfZB1gu78kmQBEMAAieDtD+PPVvuPQCVYBHNZhGt/mTQAggjn/EL7BOHScNQARDK4rAETwMoTwt60AOKyD6woAEQzA1vPYJohgAEQwgMM6sG5+uAQgggEQweC6AkAEA+CwDq4rAEQwAA7r4LoCQAQDsJm8dhFEMAAiGMBhHVg3P1wCEMEAiGBwXQEgggFwWAfXFQAiGACHdXBdASCCAdhMXrsIrisARDDA0nDHClxXAIhgAId1wHUFgAgGcFgHXFcAiGAAh3XAdQUgggGYb97AB1xXAIhggKXhjhW4rgAQwQAO64DrCgARDOCwDriuABDBAA7rgOsKQAQDMN+8gQ+4rgAQwQBLwx0rcF0BIIIBHNYB1xUAIhjAYR1wXQEgggEc1oFVXhMMIIIBcFiHpeGHSwAiGACHdXBdASCCAXBYB9cVACIYAId1cF0BIIIBcFiH+ea19gAiGACHdVgafrgEIIIBcFgH1xUAIhgAh3VwXQEgggFwWIcF5WUGACIYAId1WBp+uAQgggFwWAfXFQAiGACHdXBdASCCAXBYB9cVACIYAId1mG9eaw8gggFwWIel4YdLACIYAId1cF0BIIIBcFgH1xUAIhgAh3VwXQEgggFwWIf55rX2ACIYAId1WBp+uAQgggFwWAfXFQAiGACHdXBdASCCAXBYhwXlZQYAIhgAEQyuKwBEMAA7yx0rEMEAiGAAh3XAdQWACAZwWAdcVwCIYACHdWCVlxkAiGAARDC4rgAQwQDsLHesQAQDIIIBHNYB1xUAIhjAYR24MJ6wABDBAIhgcF0BIIIBcFgH1xUAIhiAbeGxTRDBAIhgAId1wHUFgAgGcFgHLownLABEMAAiGFxXAIhgABzWwXUFgAgGYFt4bBNEMAAiGMBhHVg3P1wCEMEAiGBwXQEgggFwWAfXFQAiGIBt4bFNEMEAiGAAh3XAdQWACAZwWAcujCcsAEQwACIYXFcAiGAAHNbBdQWACAZgW3hsE0QwACIYwGEdcF0BIIIBHNaBC+MJCwARDIAIBtcVACIYAId1cF0BIIIB2BYe2wQRDIAIBnBYB9bND5cARDAAIhhcVwCIYAAc1sF1BYAIBsBhHVxXAIhgADaT1y6CCAZABAM4rAPr5odLACIYABEMrisARDAADuvgugJABAPgsA6uKwBEMACbyWsXwXUFgAgGWBruWIHrCgARDOCwDriuABDBAA7rgOsKABEM4LAOuK4ARDAA880b+IDrCgARDLA03LEC1xUAIhjAYR1wXQEgggEc1gHXFQAiGMBhHXBdAYhgAOabN/AB1xUAIhhgSU7qg8M6bAF3ggFEMAAO7OCaAkAEA+DADq4pAEQwAA7ssKC8zABABAPgwA5Lww+WAEQwAA7s4JoCQAQD4MAOrikARDAADuzgmgJABAOw2bwmGFxTAIhggKXhrhW4pgAQwQAO7IBrCgARDODADpyvcXBNAYhgAEQwAIAIBmAOeBMf2Dx+qAQgggFwaAfXEwAiGACHdnA9ASCCAXBoB9cTACIYAId2mG9eYw8gggFwaIel4YdKACIYAId2cD0BIIIBcGgH1xMAIhgAh3ZwPQEgggFwaIf55jX2ACIYAId2WBp+qAQgggFwaAfXEwAiGACHdnA9ASCCAXBohwXl5QUAIhgAEQyuJwBEMADzwZ0rEMEAiGAAh3bA9QSACAZwaAdcTwCIYACHdlh6Xl4AIIIBEMHgegJABAMwH9y5AhEMgAgGcGgHXE8AiGAAh3bg/HiyAkAEAyCCwfUEgAgGwKEdXE8AiGAAtpXHN0EEAyCCARzaAdcTACIYwKEdOD+erAAQwQCIYHA9ASCCAZgP7lyBCAZABAM4tAOuJwBEMIBDO3B+PFkBIIIBEMHgegJABAPg0A6uJwBEMADbyuObIIIBEMEADu2A6wkAEQzg0A6cH09WAIhgAEQwuJ4AEMEAOLSD6wkAEQzAtvL4JohgAEQwgEM74HoCQAQDOLQD58eTFQAiGAARDK4nAEQwAA7t4HoCQAQDsK08vgkiGAARDODQDqyZHyoBiGAARDC4ngAQwQA4tIPrCQARDIBDO7ieABDBAGwFr2EEEQyACAZwaAfWzA+VAEQwACIYXE8AiGAAHNrB9QSACAbAoR1cTwCIYAC2gtcwgusJABEMsDTcuQLXEwAiGMChHXA9ASCCARzaAdcTACIYwKEdXE8mABDBAMw3b+QDricARDDA0nDnClxPAIhgAId2wPUEgAgGcGgHXE8AiGCABeU1jCCCARDBAA7twJr5oRKACAZABIPrCQARDIBDO7ieABDBADi0g+sJABEMwFbwGkZwPQEgggGWhjtX4HoCQAQDOLQDricARDCAQzvgegJABAM4tIPryQQAIhiA+eaNfMD1BIAIBlga7lyB6wkAEQzg0A64ngAQwQAO7YDrCQARDODQDkvPa4IBRDAADu2wNPxQCUAEA+DQDq4nAEQwAA7t4HoCQAQD4NAOricARDAADu0w37zGHkAEA+DQDkvDD5UARDAADu3gegJABAPg0A6uJwBEMAAO7eB6AkAEA+DQDvPNa+wBRDAADu2wNPxQCUAEA+DQDq4nAEQwAA7t4HoCQAQD4NAOC8rLCwBEMAAiGFxPAIhgAOaDO1cgggEQwQBL4+omABEMgAgGWBaHmABEMAAiGGDyZkMXrw6wBGwaLy8AEMEAzLHbVxc1A2yamQkARDAA8+suJoBN9UsmAFg+s3H0JBDA3H+xHtq7OqG6hDVg0xxXXWMcPBYNsEzcCQZYDPsLYNh0V69uYgYAEQzA/PEoNGyNu5oAQAQDMEdmQ3tWd7QEbAk/YAIQwQDMmVtVlzEDbIlrzYZ+1gwAIhiA+eFOFbjGABDBANM3G9qturMlYEt5XTCACAZgTtyiuqIZYEv96Gzop8wAIIIB2Hke0wTXGgAiGGD6ZkOz6hBLwLbwSDSACAZgh92kupoZYFtcbzZ0fTMAiGAAdo7HM2F7uRsMIIIB2EEehYbt5QdPACIYgJ0wG7px9SOWgG31k7Oh65gBQAQDsP3ckYKd4ZFoABEMgAgGEQzANMzGcbQCwDx9YV55h9pPWgJ2zI+MQ/9lBoBpcicYYP54QyzYWZ7EABDBADiAw9LwSDTAhHkcGmCevigPXbv6rCVgR43VNceh/zYFwPS4EwwwXzwKDTtv5loEEMEAbA+PQsN88Eg0wER5HBpgXr4gD129+mIrd6GAnXV2dfVx6MumAJgWd4IB5schAhjm6ox0sBkARDAAW8ej0DBfPBINMEEehwaYhy/GQ1eq/ic/nIR5clZ1lXHoBFMATIfDFsB8uLOvyTB3ds8j0QAiGIAt4VFocG0CsA08Dg2w01+Ihy5bfaXawxowd86srjQOnWgKgGlwJxhg5x0kgGFu7VHdyQwAIhiAzeNxS5hv3iUaYEI8Dg2wk1+Ehy5ZnVDtZQ2YW6dXVxyHTjIFwOJzJxhgZx0ogGHuXaS6oxkARDAAG+dRaFgMHokGmAiPQwPs1BfgoYtWX6suZg2Ye6dVVxiHTjEFwGJzJxhg59xWAMPC2LuVly8AIIIBWCePQsNi8Ug0wAR4HBpgJ774Dl2klXeF3scasDBObeWR6FNNAbC43AkG2Bn7CuBJ+lcTTNrFWnkZAwAiGIA18ij0ND2p+qIZJs0j0QAiGIC1mA3tUd3JEpNzcnVEdaQpJu0Os8Hv9gYQwQCsxS9XlzPD5Bw+Dp22GsJM1yWrA8wAIIIB2HUehZ6mf1z98zHVmeZwDQMgggGW3mxot+pgS0zOKdVbq8ahk6r3m2TSDpoN7WkGABEMwIX7herKZpic7z0K/T0eiZ62S7fyDu8AiGAALoTHKKfpVef6v0WwaxkAEQxAdYgJJueU84jeD1cnmGbS7rz6Tu8AiGAAzsts6Gera1hicg4fh75zzn9jHBqro0wzaZerbmkGABEMwPnz+OQ0vfF8/n2PRE/fXU0AIIIBEMHL5Ozqbefznx1VjSaatINX3/EdABEMwDnNhm5YXccSk/Ohcehr5/UfjENfrT5iokm7YnULMwCIYAB+kLvA03TEBv9zFp9HogFEMAAiWASL4KVxyGxoZgYAEQzAqtnQj1U3sMTkfKP6wIX8d95XfctUk3bV6mZmABDBAPwfd4Gn6W3j0FkX9F8Yh86sjjHV5HkkGkAEAyCCJ++ITf7v4RoHQAQDLLbZ0DWrn7HEJB25yf89Ftc1ZkM/ZwYAEQyAO0RT9bFx6H925b84Dn2hOtZkk+eRaAARDIAInqwjtvi/jwgGQAQDLJbZ0FXyrrEieIVHoqfvR2ZDNzYDgAgGWGaHlN8fOkGnVO9d4//mn6rTTDd5nvwAEMEASx/BTM/bx6HT1/I/GIe+sxrCTJtHogFEMMBymg1dvvplS0zSEdv8v2Nx/Phs6AZmABDBAMvoTtXuZhDB5+B1wcvB3WAAEQywlLw2cJo+PQ7913r+h+PQf1RfNKFrHwARDDAps6FLVbexxCQdscP/e+bfDWZDP24GABEMsEzuWF3EDCL4PHgkejl4JBpABAMsFY9DTtNp1Ts3+Nc4ujrTlCIYABEMMAmzoYtXB1hikt61+quO1m0c+lb1PlNO3o1mQ9c2A4AIBlgGt68uaoZJ2qzX83okejl4IgRABAM4+CKC8+ZYy8Ij0QAiGGDaZkN7VwdaYpK+uPorjjbDh6sTTDp5PzcbuoYZAEQwwJTtX13CDJN01Gb9hcahcTP/esw1T4YAiGAAB14W0tGb/NfzSPRy8Eg0gAgGmKbZ0J6t/H5gpmes3r7Jf82jVv+6TNvNZkNXNQOACAaYoltVlzHDJP3bOGzua3jHoa+28tpgpm1WHWIGABEMMEUehZ6uo7for+tXJS0Hj0QDiGCAaZkN7V7d2RIieI28Lng53GI2dCUzAIhggCm5eXVFM0zS6dW7t+iv/b7qWyZeirPWwWYAEMEAU+JR6On653Ho1K34C49DZ1bHmNjXCABEMMDCmA3e+Gbijt7iv75HopfDLWdDlzMDgAgGmIKbVFczgwgWwVyAPfK+AQAiGGAiPOY4Xd+sPrSVf4Nx6IvVsab2tQIAEQzgYMtOe8c4dNY2/H3cDV4O+86GLm0GABEMsLBmQzeuftgSk3X0Nv19RPBy2LM6yAwAIhhgkbkLLII3wz9Vp5l7KdzVBAAiGEAEM4/+exz69Hb8jcah01ZDmOnbfzZ0STMAiGCAhTMbun51XUtM1tHb/PfzSPRy2Ku6gxkARPD/b+/OuuQoD6xR7xcNiBkzGAyGhgYP7QHadoNtbDDzjKbPf+bcvTfnV5zL8wvOJSAsgZgHGzB4wgaP4InBZhRCinNRBS2EVFWZGZEZGfE8a7G63b26qdolVebOd0cEwDJyCqwEK8FMwyQaQAkGUILpnQfm+S9ran6V5I9iH4U7Ss0pYgBQggGWRqm5LMmVkhisnzc1f1vAv9dp8DiclOQOMQAowQDLZLcIBm3Pgv69SvB4mEQDKMEAS8UUWgnuwgNJPhL/KNxVaraJAUAJBui9UvPFJFdLYrAOZkGPK2pq/p3kMT+CUTg1yW1iAFCCAZbB7iRFDIP1eFPz7gL//SbR42ESDaAEAywFU+hh27Pgf/+9fgSjcU+p2SoGACUYoLdKzXlJfiiJQbt/wf/+nyb5ux/DKJyR5BYxACjBAH220+/NQft3kqcW+QU0NU2S+/woRsOyBEAJBvCGlYXZ19Re3J3ZJHo8dpSazWIAUIIBeqfUnJXkBkkM2p6efB33JWn8OEbhrCQ3igFACQboo+2JExsluHtNzd+zcm0w4+Au0QBKMEAvmUIP26tNzS979PV4VNJ47Cw1m8QAoAQD9EapOS3u4jp0e3r29bgueDzOTXKdGACUYIA+uTvJiWJQgufosazcrZpxMIkGUIIBemW3CJTgeVq9S/UeP5bR2FWq92QASjBAD5Sak5LcKYlB+0VT81oPvy6T6PH4QpJrxACgBAP0we1JThbDoPX1xNXNscbFJBpACQboBXeFVoIXoqn5Y9KrO1bT8e+aUlPEAKAEAyxMqdma5B5JDNpHSfb1+OsziR6PLya5WgwASjDAIt2c5HQxDNoTTc3bPf76TKLHxSQaQAkGWChT6OHr+x2YH0zyvh+T3zkAKMEAnSo1m5PskIQSvEhNzQdJHvJjGo1LS813xACgBAMswo+SnC2GQXsnyRNL8HWaRI+L02AAJRjAG1E68WBTc1AJpmdcFwygBAPMV6k5IckuSQzenmX4IpuaXyX5gx/XaHyp1FwhBgAlGGCerklyvhiU4B7xqKRxcRoMoAQDzJUp9PD9tal5YYm+XpNov4MAUIIBOrNbBIP3wBJ+vR/5sY3G10rNf4kBQAkG6FypuSrJxZIYvGWaQqep+XeSx/zYRsUkGkAJBpgLp8BKcF+ZRI+LSTSAEgzgjSet+HVT82clmJ67stRcLgYAJRigM6Xmm0m+JInBu39Jv+6fJfm7H9+omEQDKMEAnXIKPA7LOIVOU9Mkuc+PTwkGQAkGUILZqENJ9i3x128SPS7fKTWXiAFACQZoXan5cpJvSGLwnmpq/rXEX/99SRo/xlHx4RyAEgzgjSZT27PMX3xT848kP/VjHBWTaAAlGEAJZpwleJVJ9Lh8t9R8UQwASjBAa1avufuOJAbvvSSPKcEs26+oeH45gBIM0DJvMMfhoabmwwF8H48nS31dM5MziQZQggFaZQo9DkOYQqep+SjJA36co/KDUnO+GACUYICZlZovJPm+JJTgJWMSPb73a7vEAKAEA7Rhd1auuWPY/p7k+QF9P/f6kY6OSTSAEgzQClPocfhJU4fzfN2m5o9JfunHOio/KjXnigFACQaYWqk5J8l1khiFPQP8nkyix2VTkp1iAFCCAWaxY/WNJUrwMjKJHh/LFQAlGMAbStb1UlPzhwF+Xw8med+Pd1RuLDWfEwOAEgwwsVJzRpKbJDEKQzwFTlPzwWoRZjy2ZGXBAoASDDCxe5JsFYMSvORMosfHXaIBlGCAqZhCj8PhJHsH/P25Odb43FJqThcDgBIMsGGl5pQkt0liFJ5pat4c6jfX1PwqGeT1zhzf1qwsWQBQggE27M4kJ4lhFPaM4Ht0Gjw+JtEASjDAREyhleAhcV3w+NxWak4VA4ASDLCuUrMtyV2SGIX3kzwygu/zgSQf+XGPyklZWbQAoAQDrOvWxAnKSDzc1BwY+jfZ1Pw7yaN+3KNjEg2gBANsiCn0eOwZ0fdqEj0+d5bq3gYASjDAGkrNlrirqhI8TG6ONT6nJLldDABKMMBabkzyOTGMwutJfjai7/dnSf7uxz46JtEASjDAmkyhx+OBpqYZyze7+r3e58c+OneXmhPFAKAEA3xGqdmUZIckRmPPCL9nk+jxOT0rN/sDQAkG+IwfJvm8GJTgAbsvGc/pN5+wcAFQggG8URy5l5uaV8b2TTc1/0jyUz/+0dmxetM/AJRggBWlpiTZLYnR2DPi790kenzOTHKTGACUYIAjfTfJhWJQgpVgBspdogGUYIBPMYUej8NJfjLi7//xJP/yx2B0dqze/A8AJRhACR6ZZ5ua18f6zTc1HyV5wB+D0TknyfViAFCCAVJqvpXkUkmMxk9EYBI9UibRAEowQBKnwErw+NwrglHaVar3dQBKMIASPCYfJdk/9hCamj8m+aU/DqNzXlaehw6AEgyMVan5WpKvSmI0nmxq3hFDEpPosTKJBlCCgZFzCjwuptBK8NjtXn0uOgBKMKAEowSPykNJ3hfD6FyY5HtiAFCCgREqNZcluVISo/FBkkfFsKKp+SDJg5IYJZNoACUYGKndIhiVR5qaA2L4FJPocbKAAVCCAW8EGQFT6M/yqKRx+o9Sc5UYAJRgYERKzReTXC0JJXjMmppfJfmDJEbJh4AASjAwMrsTd0gdkbeTPC2GYzKJHifXBQMowcDIOAUZl4eamo/EoATzictKzX+LAUAJBkag1JyX5IeSGBVT6LWz8QHBOPkwEEAJBkZip99tSjArmpp/x6OjxsokGkAJBkbC6ce4vJ7kOTGsySR6nL5aar4uBgAlGBiwUnNWkhskMSr7mppGDGvyqKTxchoMoAQDA7c9yWYxjMoDIljXz5L8XQyjZBkDoAQD3vAxMK4HXsfqSbnT4HH6Zqn5shgAlGBggErNaUlukcSovNrU/FoMG6IEj5dJNIASDAzU3UlOFMOoOAXeuPsS104rwQAowcCQmEIrwRxHU/OPJM9IYpS+VWr+UwwASjAwIKXmpCR3SEIJZk0m0ePlQ0IAJRgYmNuTnCyGUXm5qfmDGCbiecHjZRINoAQDA+OUY3ycAk/u8ST/EsMoXV1qLhIDgBIMDECp2ZrkHkkowaytqfkoyR5JjJYPCwGUYGAgbk5yuhiUYDbEdcHjZRINoAQDA+F0Y3xebGr+JoapuC54vK4pNReIAUAJBpZYqdmcZIckRscp8JSamj8l+YUkxvkrM8kuMQAowcBy+1GSs8WgBDMRk+jxMokGUIKBJWcKPT6HkzwohpmYRI/XtaXm82IAlGCAJVRqTohp3xj9rKl5UwwzeSjJ+2IYpU1+bwIowcDyuibJ+WIYHVPoGTU1H8Rp+phZ0ABKsAgAb+RQgkfHJHq8bijVvRQAJRhgGe0WwegcTLJfDEowM3FXfUAJFgGwbErNVUkulsToPNnUvCuG2TU1v07ye0mMlrtEA0owwJIxhR6nB0TQKo9KGq+bSs0ZYgCUYIDlYQo9Tq4HbpdJ9HhtTbJdDIASDLAESs03k3xJEqPzfpLHxdCqB7JynTXjZBINKMEAS8IUepweaWoOiKE9Tc3bSR6TxGjdWmpOEwOgBAMowfSTKXQ3TKLHa1uSu8QAKMEAPVZqvpzkG5JQglGCaYVJNKAEA/ScU+Bx+neSp8XQiWeT/E0Mo3VHqTlZDIASDKAE0y8PNTWHxNC+pqZJcp8kRuvkJHeIAVCCAXqo1FyS5DuSGCVT6G6ZRI+bSTSgBAP0lGcDK8F04/4kjRhG6+5Ss00MgBIM0D+m0OP0zyTPi6E7Tc0/kjwjidE6NcltYgCUYIAeKTUXJPm+JEZp7+p1q3TLJHrcfMgIKMEAPbMrSRHDKJlCz8e9Ihi17aVmqxgAJRigP5xSKMF06/Ek/xLDaJ2R5GYxAEowQA+UmnOSXCeJUfpLU/MbMXSvqfkoyR5JjJoPGwElGKAndibZJIZRcgo8X64LHvnv2lKzWQyAEgyweB6NpAQzH64LHrezktwgBkAJBligUnNGkpskoQTTvabmT0l+IYlR+7EIACUYYLHuSdyxdKR+19T8UQxzZxI9bjtLdfkJoAQDLJIbtYzXAyJYCJPocft8kmvFACjBAAtQak5JcpskRssUejEeSvK+GEbNJBpQggEW5M4kJ4lhtPaKYP6amg+S7JPEqO0uNUUMgBIMMH+m0OP1QlPzdzEsjEn0uH0hyTViAJRggDkqNduS3CWJ0TKFXiw3x8IkGlCCAebs1iSnikEJZv6aml8n+b0kRu3/mEQDSjDAnN+AiWC0Did5UAwLZxI9bhcluUoMgBIMMAelZktWng/MOP20qXlLDAtnEo1JNKAEA8zJjUk+J4bRMoXuhweSHBSDEgygBAN0zxRaCWbBmpq3kzwqiVG7tNR8WwyAEgzQoVKzKclOSYzWwST7xdAbrgvGh5KAEgzQsR8mOVcMo/V4U/OeGHrDdcGYRANKMEDHnDqMmyl0vzyb5G9iGLUvl5pvigFQggE6sPpMyt2SUILph6amSXKfJEbPaTCgBAN05LtJLhTDaL2X5HEx9I5JNBY6gBIM4I0WHXikqflQDL1zX5LDYhi1r5ear4oBUIIBlGDaZQrdQ03NP5P8VBKjZxINKMEAbSo130pyqSSUYHrJJBolGFCCAVrmFHjc/pXkGTEowfTWlaXmMjEASjCAEkw7HmpqDomhtx7PygcVjJvTYEAJBmhDqfla4qYrI/eACPpr9QOKPZJQgkUAKMEA7XAKjOuB+88kmv8pNf8hBkAJBlCCmc0/krwght67VwT4fQ0owQAzWr3RypWSGLW9TU0jhn5rav6U5BeSGD2TaEAJBpiRUwVMoZeHSTTfKzUXigFQggGUYJRgJZgxKEl2iwFQggGmeSdVc1GSqyQxan9ual4Sw9LYn+R9MYyeSTSgBANMaVdWThUYL6fAS6Sp+SDJPkmM3g9LzXliAJRggMmZQqMELx+TaE6ISTSgBANMZvUU4YeSUIJFsHQ8KonEh5iAEgwwsZ1+/4zeS6uP3WGJNDW/TvJ7SYze9aXmHDEASjDAxjlFwCnw8jKJZlNWPswEUIIB1lNqzkpygySUYBEsLZNoEh9mAkowwIZtT7JZDKPWJNkrhqX1QJKDYhi9m0rN58QAKMEA63N6wAtNzT/EsJyamreTPCqJ0duSlQ81AZRggOMpNacluUUSo2cKvfxcF0yS/FgEgBIMsLa7k5woBiVYBEvPdcEkyS2l5nQxAEowwPGZQnMoyYNiWHrPJvmbGEbvxKx8uAmgBAMcrdSclOQOSYzeT5uaf4lhuTU1TZwGs8IkGlCCAY7jjiQni2H0HhDBYCjBJMntpeYUMQBKMMBn7RYBcT3wkNyX5LAYRu+kJHeKAVCCAY5QarYmuUcSo/dhkkfEMAxNzT+TPCMJYhINKMEAn3Fz4g6i5PGm5j0xDIpJNEly1+p9HwCUYIBV7gpNYgo9RJ4XTJKckuQ2MQBKMECSUrM5yQ5JoAQP0uNJ3hIDMYkGlGCAT/woydliGL33kjwhhmFpag7FHb9ZcU+pOVEMgBIMYArNioebmg/FMEgm0SQr9324RQyAEgyMWqk5IckuSRBT6CFzcyw+5kNPQAkGRu+aJOeLASV4uJqaPyV5URIk2VFqtogBUIKBMXMqQLJy46SfimHQnAaTJJ9LcqMYACUYGLPdIiDJg6s3UGK4XBfMx9wlGlCCgXEqNVcluVgSxBR6DB7Kyh3AYWep2SQGQAkGxsgUGiV4JJqaA0kelARJzsnKo/EAlGBgdEyhSZK/x02TxsIkmo+ZRANKMDAupeaKJF+SBEn2NjWNGJRgRmXX6iPyAJRgYDScAvMxU+iRaGp+k+T3kiArj8b7gRgAJRgYE9cDowSPk9NgPmYSDSjBwDiUmi8n+YYkSPKnpua3YlCCGaXdpaaIAVCCgTFwCszHHhDB6PwkyUExkOSLSb4rBkAJBpRgxlaIGJGm5u0kj0qCVSbRgBIMDFupuSTJdySBEjxqJtF8zIeigBIMDJ67QvOx3zQ1fxGDEsyoXVJq/kcMgBIMDJlP/fmYU+Dxei7J38SA1wVACQYGrdRckOT7kkAJHrempklyryRY5bpgQAkGBmtX4nEYrPSgJHvFMGom0Xzs8lJzpRgAJRgYIpM3PvbzpuafYhi1+5McFgOrnAYDSjAwLKXmnCTXSYJVptAjt/ohyDOSYJUPSQElGBicnUk2iQElmCOYRPOx/yo1XxMDoAQDQ+JTfj52KMmDYiBujsWnmUQDSjAwDKXmjCQ3SYJVTzc1/xYDSR5P8pYYWOXDUkAJBgbjniRbxMAqU2iSJE3NoSR7JMGqK0rNl8QAKMHAEPh0HyWY4zGJ5kgm0YASDCy3UnNKktskwaoDSR4RA0dwcyyUYEAJBgblziQniYFVjzc174uBjzU1f07yoiRY9e1Sc6kYACUYWGam0BzJFJpjcRqM1w1ACQaWX6nZluQuSaAEsw7XBXMkk2hACQaW1q1JThUDq95N8oQYOIaHkrwnBlZdXWouEgOgBAPLyKSNIz3c1BwUA0drag4k2ScJVpUku8UAKMHAcr2DqdmSZLskOMIDImANJtEcySQaUIKBpXNjkjPFwBFcD8xa3ByLI11Tar4gBkAJBpaJKTRHeivJz8TA8TQ1v0nyiiQ44v3nLjEASjCwFErNpiQ7JcER9jU1h8XAOkyiOZJJNKAEA0vj2iTnioEjmEKzESbRHOm6Ur2WAEowsBxMoVGCmfbPiTuI87FNMYkGlGCg70pN8aaFo/ytqXlRDKynqXk7yaOS4Ag+VAWUYKD3vpvkQjFwhL0iYAIm0RzpxlJzlhgAJRjoM5/aczRTaJRgprU5yQ4xAEowoASzTB4QARN4LslfxcAR3CUaUIKBfio130pyqSQ4wh+ampfFwEY1NU2S+yTBEW4uNWeIAVCCgT5yCszRTKGZhkk0R9qa5B4xAEowoASjBDNU9yc5LAaOYBINKMFAv5SaryX5qiRQgplVU/PPJM9IgiPcVmpOFQOgBAN94hSYo/26qXlVDEzJJJojbUtylxgAJRhQgukzp8AowbTJJBpQgoF+KDWXJblSEijBtOiJJG+JgSPcWWpOFgOgBAN94BSYozVJ9oqBqf8A1RxKskcSHOHkJLeLAVCCASWYPnq+qXldDMzIJJqjmUQDSjCwWKXmoiRXSYKjPCACWnCvCDjK3aXmRDEASjCwSLuSFDFwFNcDM7Om5s9JXpQERzgtyW1iAJRgYJFMoTnaR0keEgMtMYnG6w6gBAP9UGrOS/JDSXCUp5uat8WAEkxHtpeaLWIAlGBgEXb6HcExmELTpv1J3hMDRzgzyc1iAJRgYBFM0lCC6VRTcyDJPklwFHeJBpRgYL5KzVlJbpAERzmQ5BEx0DKTaI62o9RsFgOgBAPztD3xBoTPeKyp+UAMtMyjkjja2UmuFwOgBAPzZArNsZhC07qm5jdJXpEERzGJBpRgYD5KzWlJbpEESjBzZBLN0XaV6n0qoAQD83F3khPFwFHeSfKkGOiISTRH+3ySa8UAKMHAPJhCcyz7m5qDYqAjP0n8+eIzTKIBJRjoVqk5KckdkuA4JQU60dS8HXce57N2l5oiBkAJBrp0R5KTxYASzAK4LpijXZDk+2IAlGCgS6bQHMubSZ4VAx1zXTDHYhINKMFAN0rN1qzcFAuOtq+pOSwGOvZckr+KgaP4cBZQgoHO3JzkdDFwDKbQdK6paeI0mM+6uNRcLQZACQa64NN2lGAWTQnG6xOgBAPdKzWbk+yQBMfw16bmF2JgTu5LTO/5DNcFA0ow0LofJTlbDByDU2Dmpql5PcnTkuAo/1lqviUGQAkG2mRqhhJMX5hE43UKUIKB7pSaE5LskgRKMD3hecEci0k0oAQDrbkmyfli4Bh+39S8Igbm7Ikkb4mBo3yl1HxDDIASDLTBxIzjcQrM3DU1h5LskQTH4DQYUIKBVuwWAUowPWMSzbH40BZQgoHZlJqrklwsCZRgesbNsTiWb5Sar4gBUIKBWfhUneP5VVPzmhhYhKbmz0lekATHYBINKMGAEkwnnAKzaE6DUYIBJRhoT6m5IsnlkkAJpqdcF8yx/HepuUwMgBIMTMMpMMfTJNkrBhZsf5L3xIDXL0AJBtrirtAcz7NNzRtiYJGamgNJ9kmCYzCJBpRgYDKl5stJviEJjsMUmr4wieZYrirVkw0AJRiYjCkZSjBKMF7HACUY8OaB0fsoK9diwsI1NS8leUUSHINJNKAEAxtTai5J8h1JcBxPNTVvi4EecRrMsXy/1FwgBkAJBjbCDbFYiyk0SjDLoHg9A5RgYKNMoVGCWbY/kwfFwDGYRANKMLC21enY9yXBcXyQ5FEx0CdNzTtJHpEEx3BtqTlPDIASDKxlV1YmZHAsjzU1H4iBHjKJ5njvY3eJAVCCgbWYQrOWB0SAEozXNUAJBgah1JyT5DpJsAbXA9NXzyf5qxg4hutLzdliAJRg4Fh2JtkkBo7jnSRPiYE+amqaJPdKgmPYvPr6BqAEA59hMsZaHmpqPhIDPWYSzfG4SzSgBAOfVmrOTHKTJFiDKTR9d3+Sw2LgGG5afZ0DUIKBT9yTZIsYUIJZVk3N60melgTHsCXJdjEASjBwpN0iYA1vJHlODCwBk2iOxyQaUIKBFaXmlCS3S4I17GuqmSlLwc2xOJ5bS81pYgCUYCBJ7kyyTQyswRSaZfFEkjfFwDGcmORuMQBKMJC4KzTre0AELIOm5lCSPZLgOEyiASUYxq7UbEtylyRYw2tNza/EwBIxieZ47li9BAhACYYRuzXJqWJgDabQLBs3x+J4TkpyhxgAJRjGzRQaJZhBaWr+kuQFSXAcJtGAEgxjVarnJqIEM1hOgzmeu1YvBQJQgmGEbkxyphhYwytNze/FwBJyXTDHc2o8FhBQgmG0TKFZj1NgltX+JO+JAa9/gBIMJElKzaYkOyWBEswQNTUHkuyVBMdxT6nZKgZACYZxuTbJuWJACWbATKI5njOS3CIGQAmGcTEFYz2/bGr+KgaWmJtj4XUQUIKBpNSUJLskwToeEAHLrKl5KcnLkuA4dpSazWIAlGAYh+8muVAMrMMUmiEwieZ4zsrKUxIAlGAYARMw1nM4yYNiYABMolnLj0UAKMGgBEOSPNvUvCEGBuAnSQ6KgePYufq0BAAlGIaq1HwryaWSYAPFAZZeU/NOkkckwXGcm+Q6MQBKMAybU2CUYMbGJJq1mEQDSjAowYzcwST7xYASzEjsKtX7XUAJhkEqNV9L8lVJsI6nViekMAhNzXOJZ15zXF9Ico0YACUYhskpMBthCs0QeVQSazGJBpRgUIJRgmFQTKJZ8/Wx1BQxAEowDEipuSzJlZJgHR8keVQMDND9WXn+NRzLF5NcLQZACYZhcQrMRjzS1BwQA0PT1Lye5GlJsAaTaEAJBiWYETKFZshMovE6CSjBMAal5qIkV0kCJRglGI7r0lLzHTEASjAMw+7EDT9Y19sxF2XYnkzyphhYg9NgQAkGL+qMyENNzUdiYKiamkNJ9kiCNbguGFCCYdmVmvOS/EASbIApNGNgEs1avlRqrhADoATDctvp7zFKMHziXhGwDqfBgDfPsORModmI15M8JwaGrqn5S5IXJIHXTUAJhgEqNWcluUESbMDepqYRAyNhEs1avlZq/ksMoAQDy2l7ks1iYANMoVGC4X+ZRIMSDCwpky6UYPish5O8JwaUYEAJhgEpNacluUUSbMCrTc2vxcBYNDUHkuyVBGu4otRcLgZQgoHlcneSE8XABjgFZoxMolmP02BQgoElYwqNEgzH51FJKMGAEgxDUWpOTnKHJFCC4diampeSvCwJ1vCdUnOJGEAJBpbD7UlOFgMb8HJT8wcxMFIm0azHqgqUYMCLNgPjFJgxM4lmPSbRoAQDfVdqtmblpligBMP6f/4/FANr+G6p+aIYQAkG+u2WJKeLASUY1tbUvJPkEUmwhpJktxhACQb6zYs1G/ViU/M3MTByJtGsxyQalGCgr0rN5iQ7JMEGOQUGN8difT8oNeeLAZRgoJ9+lORsMaAEw8Y0Nc8leU0SrPNe2MoKlGCgp9wVmo06nORBMUASk2i8vgJKMCyfUnNCkl2SYIN+1tS8KQZQgtmQH5Wac8UASjDQL9ckrlliw0yh4X/dn5V1BBzPpiQ7xQBKMNAvploowTCFpub1JE9JAq+zgBIMy8VNO9ioj5I8LAb4FJNo1nNjqfmcGEAJBnqg1FyV5GJJsEFPNjXviAE+xaOSWM+WeAwhKMFAb5hoMYm9IoDPeDJxszjW9WMRgBIMKMEowbD0mppDSfZIgnXcUmpOFwMowcAClZorklwuCTboQJJHxQDHZBLNerYmuUcMoAQDi+UUmEk83tS8LwY4JjfHYiNMokEJBpRglohHI8FxNDV/SfKCJFjH7aXmVDGAEgwsQKn5SpKvS4IJuB4Y1mYSzXq2JblTDKAEA4vh2cBM4r0kT4gBlGBmZhINSjCwIKbQTOKRpuZDMcCaHk7yrhhYx52l5iQxgBIMzFGpuSTJdyTBBEyhYR1NzYEk+yTBOk5JcrsYQAkG5ssUmkm5KRZsjEk0G2ESDUowMGem0Ezi7STPiAGUYFpzd6k5UQygBANzUGouSPJ9STCBh5qaj8QA62tqfpvkZUmwjtOT3CoGUIKB+diVpIiBCbgeGCbjNJiNsMoCJRjwoosSDEowo7Gj1GwRAyjBQIdKzTlJrpMEE3gzybNigInsTTxSjHWdmeQmMYASDHRrZ5JNYmACDzY1h8UAG9fUvJPkEUmwAe4SDUow0DFTaCbl0UgwHZNoNmJHqT6cBiUY6ESpZldMxfXAMJ17RcAGnJPkejGAEgx0457EDTiYyN+TvCgGmFxT81yS1yTBBphEgxIMdMQUmknta2oaMcDUnAazEbtK9Z4ZlGCgVaXmlCS3SYIJmULDbFwXzEacl+SHYgAlGGjXnUm2iYEJuSkWzOb+xN3V2RCTaFCCgZaZQjOpV5ua34gBptfUvJHkKUmwAbtLTREDKMFAC0rNtiR3SYIJOQWGdphEsxEXJvmeGEAJBtpxa5JTxcCEXA8M7XBzLDbKJBqUYKAlptAowbA4TyZ5Uwx4vQYlGJiDUrMlyXZJMKHfNzWviAFm19QcysoNsmA9/1FqrhIDKMHAbG5McqYYmJBTYGiXSTQb5TQYlGDAiykL4KZYoASzGK4LBiUYmFap2ZRkpySYgpNgaFFT85ckP5cEG3BZqflvMYASDEzn2iTnioEJvbT6hh1ol9NgNsppMCjBwJRMoZmGKTR0w/OC8foNSjDQlVJTkuySBFMwhYZu7E/yrhjYgK+Wmq+LAZRgYDLfS3KhGFCCoR+amg/9/WICJtGgBAMTMqViGi82NX8XA3TGdcF4HQclGOjIbhEwBdcDQ7dcF8xGfbPUfFkMoAQDG1BqvpXkUkkwBVNN6FBT89skv5MEG2QSDUowsEEmVEzjcJIHxQCdM4lGCQYlGFCC6YHnmpo3xACdM4lmo75Vav5TDKAEA2soNV9L8lVJMAVTaJjf37UPxcAG+WAblGDAiyUdcVMsmIOm5p0kj0iCDTKJBiUYUILpwKEk+8UAc2MSzUZdXWouFgMowcAxlJrLklwpCabwdFPzbzGAEkwveewhKMHAcTgFZlquB4Y5amqeT/KaJNggk2hQggElGCUYlp5HJbFR15SaC8QASjBwhFJzUZKrJMEUDiZ5WAwwdybRbPhlPskuMYASDHza7tUXSZjUE03Ne2KAubs/yWExsEEm0aAEA0cxhWZaHo0EC9DUvJHkKUmwQdeWms+LAZRgIEmpOS/JDyTBlFwPDItjEs1GbYpJNCjBwCd2+rvGlD5I8pgYQAlmKVh9gRIMeFFkRo82NQfEAAvzVJI3xcAG3VBqzhYDKMEwaqXmrCQ3SIIpmULDAjU1h7JygyzYiM1JdogBlGAYu+2rL4owDTfFgsUziWYS7hINSjCMnik003o37kwLfXCvCJjATaXmDDGAEgyjVGpOS3KLJJjS/qbmoBhgsZqaV5P8XBJs0NasrMAAJRhG6e4kJ4qBKbkeGPrDJJpJmESDEgyjZQqNEgzDYBLNJG5dXYMBSjCMR6k5OckdkmBK/0ryUzFAb+zPynX6sBHbktwlBlCCYWxuT3KyGJjSQ6uPZgF6oKn5MNYZTMYkGpRgGB1TaGbh0UjQP64LZhJ3rK7CACUYhq/UbM3KTbFgWk6coH9cF8wkXBYFSjCMyi1JThcDU3o9yfNigH5pan6b5HeSYAIm0aAEw2iYQjOLfU1NIwboJZNoJnF3qdkmBlCCYdBKzeYk2yXBDEyhob9MopnEqUluEwMowTB0P0pythiYgZtiQb//fn4oBiZgHQZKMHixgzX8tan5pRign5qad5M8LAkmsH31hpmAEgzDU2pOSLJLEszAFBr6zySaSZyR5GYxgBIMQ3VNkvPFgBIMg+bmWEzKXaJBCYbBMoVGCYaBa2qeT/KqJJjAjtUbZwJKMAzObhEwgz+tPocU6L/7RMAEzkpygxhACYZBKTVXJblYEszAKTAsD5NoJmUSDUowDI4pNLPyaCRYHvcnOSwGJrCz1GwSAyjBoATD/3ISDEuiqXkjyZOSYAKfT3KtGEAJhkEoNVckuVwSzODlpuaPYoCl4lFJTMokGpRgGAynwMzKFBqWj+uCmdTuUlPEAEowKMFgCg3L6Kkkb4iBCXwhyTViACUYllqp+UqSr0sCJRjGpak5lGSPJJiQSTQowbD0nAIzq181Na+JAZaSSTQTv28wiQYlGJbdbhEwI9cDw/JycywmdVGSq8UASjAspVJzSZLvSIIZmULDkmpqXk3yc0kwISsyUIJhaTkFZub30En2iQGWmkk0k3JdMCjBsLR8ksusft7U/FMMoAQzKpeWmm+LAZRgWCql5oIk35cEMzKFhuX3cJJ3xcCEfJAOSjAsnV2JuzsyMzfFgiXX1HwYH2gxOZNoUIJh6fgEl1kdTvKQGGAQTKKZ1JdLzTfFAEowLIVSc06S6yTBjH7a1LwlBlCCGS2nwaAEw9LYmWSTGJiR+SQMRFPzuyS/kwQTsioDJRi8aKEEA0vLaTCT+nqp+aoYQAmGXis1Zya5SRLM6KMk+8UASjCjZxINSjD03j1JtoiBGT3V1LwjBhiUvUk+FANKMCjBMDSm0LTBo5FgYJqad7PyzGCYxJWl5nIxgBIMvVRqTklymyRogeuBYZhMopmGD9hBCYbeuivJNjEwowNJHhUDDNK9ImAKJtGgBENv7RYBLXi8qXlfDDA8Tc3zSV6VBBP6n1LzH2IAJRh6pdRsy8pJMMzKFBqGzWkw0zCJBiUYeufWJKeKgRa4KRYowXA0k2hQgqF3fEJLG95L8oQYYNDuT3JYDEzoe6XmQjGAEgy9UGq2JNkuCVrwSFM9RxSGrKl5I8mTkmDStxtx7xFQgqFHbkxyphhogeuBYRw8KolpmESDEgy9YQqNEgxMwnXBTOOHpeY8MYASDAtVajYl2SkJWvB2kqfFAKPwZJI3xMAU78tNokEJhoW7Nsm5YqAF+5uaj8QAw9fUHM7KDbJgUtZnoASDFyMGw6ORYFxMopnG9aXmHDGAEgwLUWpKkl2SoCWuBwYlGNbjMixQgmGhvpd4Zh+teDPJs2KA8WhqXk3yvCSYgrtEgxIMC2MKTVseXL1GEBgXp8FM48ZS8zkxgBIMi+AOjbTFFBrGyfOCmcaWJNvFAEowzFWp+VaSSyVBS9wUC8bp4STvioEpmESDEgxzZwpNW/6R5EUxwPg0NR/GEoTp3FJqThcDKMGgBLOM9jY1jRhgtEyimcaJSe4WAyjBMBel5mtJvioJ2irBIgAlGKZgEg1KMMyNU2CUYKAVTc3vkvxWEkzh9lJzihhACQYlmGXyalPzazHA6HlUEtM4KcmdYgAlGDpVai5LcqUkaIlTYCAxiWZ6JtGgBEPnnALTJo9GApKVD8Q+FANTuKvUnCQGUIJBCWaZ3vgCI9fUvJuVZwbDpE5JcrsYQAmGTpSai5JcJQla8oem5hUxAKtMopmWD+hBCYbO7E5SxEBLTKEBJZg23FNqThQDKMHQBZ+00iZTaOATTc3Pk7wqCaZwepJbxABKMLSq1JyX5AeSoEVOgoGjeVQS0/JBPSjB0Lpd/j7Qopeamr+IATiKSTTT2lFqtogBlGBok09YaZNTYOBY9iQ5JAam8LkkN4oBlGBoRak5K8n1kqBFrgcGPqOpeSPJU5JgSj8WASjB0JbtSTaLASUYmAOTaKa1s9RsEgMowdAGU2ja9GJT83cxAEowLTsnyY/EAEowzKRUjx2gdU6BgbU8leQNMTAlk2hQgmFmdyUeQE+r3BQLOK6m5nCS+yXBlHaV6v07KMEwG1No2nQ4yYNiANZhEs20zk/yAzGAEgxTKTUnJ7lDErTo+dW7vwKs5V4RMAOTaFCCYWq3JzlZDLTIFBpYV1PzWpLnJcGUdpeaIgZQgmEaptC0zU2xgI0yiWZaX0zyXTGAEgwTKTVbk9wtCVp0KMlDYgA2yCSaWZhEgxIME7slyelioEXPNDX/FgOwQQ8neVcMTMmaDZRg8OLBwrkeGNiwpuZDvzeYwSWl5n/EAEowbEip2ZxkuyRomeuBgUmZRDMLH+iDEgwbdn2Ss8VAiw5mZdoIMAk3x2IWrgsGJRg2bLcIaNkTTc17YgAm0dT8LslvJcGULi81V4oBlGBYU6k5IckuSdAyU2hgWk6DmYXTYFCCYV3XJDlfDLTMzW2AabkumFm4LhiUYPBiwdx9kOQxMQBT2pvkQzEwpf8qNV8TAyjBsBbXA9O2R5uaA2IAptHUvJtkvySYgUk0KMFwbKXmqiQXS4KWuR4YmJVJNEowKMHQCVNolGCgj9wci1l8s9R8SQygBIMSzDy8m+RJMQCzaGp+nuRVSTADp8GgBMOnlZorklwuCVr2cFNzUAxAC0yiUYJBCYZWOQWmCx6NBLTFJJpZfLvUXCoGUIJBCaZrrgcG2nJ/kkNiwHsdUIJhZqXmK0m+Lgla9q8kPxUD0Iam5s0kT0mCGZhEgxIMn/DJKF14qKlObYBWmUQzi6tLzUViACUYlGC6YgoNKMH0SUmyWwygBDP2V4OaS5J8WxJ0wE2xgLY9leQNMTADk2hQgsEnonTi9STPiwFoU1NzOCs3yIJpXVNqviAGUIIZN1NourCvqWnEAHTAJJpZ39s7AAAlmLEqNRck+b4k6IDrgYGu3CsCZuQAAJRgRmxXVm4SAUowsBSamtficgtmc12pOVcMoAQzTj4JpQt/a2p+IQagQybRzGJTVg4CACWYMVn9BPQ6SdABp8CAEkzfOQgAJZgR2pGVT0KhbR6NBHTtkSTviIEZ3FhqzhIDKMGMi09A6YqTYKBTTc2Hftcwo81ZORAAlGDGoNScmeQmSdCBPzU1vxUDMAcm0czqxyIAJZjxuCfJFjHQASczwLx4VBKzurnUnCEGUIIZB1NolGBgqTU1v0ssT5jJ1qwcDABKMENWak5Ncpsk6IibYgHzZBLNrEyiQQlmBO5Msk0MdODlpuaPYgCUYJbIbasHBIASzICZQtMVp8DAvO1L8qEYmMG2JHeJAZRgBqrUbMvKSTB0wfXAwFw1Ne8m2S8JZmQSDUowA3ZrYvKDEgwMikk0s7qz1JwsBlCCGSZTaLryq6bmNTEAC+BRSczq5CS3iwGUYAam1GxJsl0SdMQpMLAQTc3Pk/xFEszIJBqUYAboxiRnioGOuCkWsEhOg5nV3aXmRDGAEsywmELTlSYrd2gFUIJZVqcluU0MoAQzEKVmU5KdkqAjLzQ1/xQDsED3JzkkBmbkwACUYAbk2iTnioGOmEIDC9XUvJnkSUkwo+2r91ABJVgEDIBPNumSm2IBfWASzazOTHKzGEAJZsmVmpJklyToyOEkD4oB6AHPC6YN7hINSjAD8L0kF4qBjvysqXlLDEAPPJXkDTEwox2lZrMYUIJhuZlC0yXXAwO90NQcTnKfJJjR2UmuFwNKMCy33SKgQ64HBvrEdcG0wSQaJVgELKtS8+0kl0qCjnyUZL8YACWYgdlVqg6AEgzLyhSaLj3V1LwjBqAvmprXkjwnCWb0+aw8XhKUYFhCptB0yRQa6COnwbTBJBolGJZNqflakq9Kgg65KRbQRx6VRBt2rz5mEpRgWCKm0HTpQJJHxQD00COJSzWY2QVJvi8GlGBQguFjTzQ174sB6Jum5sO4XIN2mESjBMOyKDWXJblSEnTIFBroM5No2uBAASUY/NKGTzhlAZRghu7iUnO1GFCCQQmG95M8Lgagr5qal5P8VhJ4TwVKMCNQai5KcpUk6NAjq9fcAfSZ02Da4LpglGBYArsTt/SnU64HBpRgxuI/S823xIASDP1mtkPXXA8MLIN9WXmcG8zKaTBKMPRVqTkvyQ8kQYfeTvK0GIC+a2reTfKwJGiBAwaUYOixXf7M0rH9Tc1HYgCWhEk0bfhKqfmGGFCCoZ98UknXTKEBJZgxMolGCYa+KTVnJbleEnTMTbGApdHUvJDkL5KgBQ4aUIKhh3Yk2SwGOvRmkmfFACyZe0VAC75Rar4iBpRg6JfdIqBjDzY1h8UALBmTaNpiEo0SDH1Rak5Pcosk6JjrgYFltCfJITGgBIMSzLDcleREMaAEA3xaU/NmkiclQQv+u9RcJgaUYOgHN2uga/9I8oIYgCVlEo33XKAEMxSl5uQkd0iCju1rahoxAEvKzbFoi0k0SjD0wO1JThYDHfNoJGCZPZXkdTHQgqtKzcViQAmGxTLLYR5cDwwsrdU7298vCbz3AiWYJVdqtia5WxJ07NWm5tdiAJac64Jpi0k0SjAs0C1JThcDHXMKDAzBfSKgJd8vNReIASUYFsMcByUYYAOamteSPCcJWlCS7BYDSjDM+7dvzeYk2yXBHLgpFjAUJtG0xSQaJRgW4PokZ4uBjv2hqXlFDMBAeFQSbbm21JwnBpRgmC9TaObBKTAwJA8neUcMtNQRdokBJRjmpNSckGSnJJgD1wMDg9HUHIwP92iPAwmUYJija5KcLwaUYICJmUTTlutLdWkaSjDMi08emYeXmpo/iwEYGDfHoi2bY5mHEgxz47b8zINTYGBwmpqXk7wkCVriLtEowdC1UnNVkoslwRy4bg4YKpNo2nJTqTlTDCjB0C1TaOZlnwiAgTKJpi1bkmwXA0owKMEsv180NX8TAzBQe5McEAMtMYlGCYaulJorklwuCebAFBoYrKbmvST7JUFLbi01p4kBJRi64RSYeXFTLGDoXBdMW05McrcYUIJBCWZ5NXE9MDB8rgumTSbRDEppmkYKLP4PYs1XkvxKEszBs03Nt8QAjOC19c9JLpQELXg/yblNzbuiYAicBNMXToGZF9cDA2NhEk1bTkpyhxhQgkEJZjm5HhgYC5No2mQSjRIMbSk1lyT5tiSYg0NJHhIDMBJ7Vn/vQRvuKjXbxIASDO1wCsy8PNPU/FsMwBg0NW8meVIStOTUJLeLASUYlGCWiyk0MDYm0XjPBkowfVJqLkjyPUkwJ26KBSjBML17Ss1WMaAEw2x2JSliYA4OJnlEDMDIPJ3kdTHQkjOS3CIGlGCYjVkN8/Kk5xsCY9PUHE5yvyRokbtEowTDtErNuUmukwRzYgoNjJVJNG3aXmo2iwElGKazI8kmMTAnbooFjNW9IqBFZyW5UQwowTAdU2jm5YMkj4kBGKOm5q9JnpMELTKJRgmGSZWaM5PcJAnm5LGm5gMxACNmEk2bdpZqzYcSDJO6J8kWMTAnrgcGlGBoj/u6oATDFEyhmSfXAwNj90iSd8RAi0yiUYJho0rNqUlukwRz8m6SJ8UAjFlTczBWMbRrV6m6BEowbNSdSbaJgTl5ePXNH8DYmUTTpi8kuUYMKMGwMabQzJMpNMAKj0qibSbRKMGwnlKzLSsnwTAv5n8ASZqal5O8JAla9H9KTREDSjCs7bYkp4qBOfl3kp+KAeATJtG06YtJvisGlGBY224RMEcPNTWHxADwCZNo2uYyN5RgOJ5SsyXJdkkwR6bQAJ+2N8kBMaAEowTDfNyY5EwxMOc3ewCsamreS7JfErTo0lLzHTGgBMOx+aSQeXo9yXNiAPgM1wXjPR5KMHSt1GxKslMSzNG+pqYRA8BnuC6YtnlUEkowHMO1Sc4VA3PkemCAY2hqXkjyF0nQoi+VmivEgBIMn2YmgxIM0B8m0bTNaTBKMHxs9SHquyTBHL3W1PxKDADHZRJN2xx4oATDEb6X5EIxMEdOgQHWdn/iOeq06mul5r/EgBIMK3wyiBIM0CNNzVtJnpAELTOJRgmGVbtFgBIM0Dsm0SjBKMHQtlLz7SSXSoI5eqWp+b0YANbl5li07YpSc7kYUIIZO1No5s0pMMDGPJ3kdTHQMqfBKMEowSJACQbon6bmcFZukAVKMEowtKHUfD3JVyTBnO0VAcCGmUTTtu+UmkvEgBLMWLkhFvP2y6bmNTEAbNi9SRox0DJLQJRg/AKEOXEKDDCBpuavSZ6TBC0ziUYJZnxKzWVJrpQEc+Z6YIDJeVQSbftuqfmiGFCCGRunwMxbk2SfGAAm5rpg2lbisjiUYJRg6NxzTfWoD4ApPJLkHTHQMpNolGDGo9RclORqSTBnptAAU2hqDvodSgd+UGrOFwNKMGNh/oISDLBcTKLpomd4T4gSzGiYQjNvHyV5SAwASjDeE8J6StN4NBwt/oGqOS/Jq/EBC/P1eFPzfTEAzPQa/pskX5IELTqU5AtNzT9EQZ8oKrRtlz9XLIApNMDsnAbTtk1JdooBJZihM3tBCQZQguFj7hKNEsxwlZqzklwvCebsQJJHxQAws32rv1OhTTeUms+JASWYodqRZLMYmLPHmpr3xQAwm6bmvST7JUHLtqy+RwQlmEEyhWYRTKEB2mMSTRdMolGCGZ5Sc3qSmyWBEgygBMNRbll9rwhKMINyV5ITxcCcvZvkSTEAtKOpeTHJnyVBy7YmuUcMKMEMjSk0i7C/qTkoBoBW3SsCOmASjRLMcJSak5PcIQkWwBQaoH0m0XTh9lJzqhhQghnML7UkJ4sBJRhgEPYkOSQGWrYtyZ1iQAlmKEyhWYS3kvxMDADtamreSvKEJOiASTRKMMuv1GxNcrckWIAHm5rDYgDohEk0Xbiz1JwkBpRglt0tiVvesxCm0ADdcXMsunBK3EcGJZgBMIVGCQYYnqeTvC4GvHdECYYjlJrNSXZIggX4e1PzghgAurF6ucl9kqAD95SaE8WAEsyyuj7JWWJgAfaKAKBzJtF04bQkt4oBJZhlZc7CophCA8ynBDdiwHtIlGBIUmpOSLJTEijBAMPU1Pw1yXOSoAM7Ss0WMaAEs2x+kOR8MbAAf2pqfisGgLnwqCS6cGaSm8SAEsyyMWNhUZwCA8yP64Lpyo9FgBLMstktApRggMF7JMnbYqADO0rNJjGgBLMUSs1VSS6SBEowwLA1NQf93qUj52TlSSOgBLMUTKFZlJeamj+LAWCuTKLpikk0SjBKMKzDaQTA/Lk5Fl3ZtfrEEVCC6a9Sc0WSyyWBEgwwDk3NK0l+Iwk6cF6SH4oBJZi+cwrMwt6HJdkrBoCFMImmKybRKMEowXAcLzQ1/xADwEKYRNOV3aWmiAElmF4qNV9J8nVJsCCm0ACLsy/JATHQgQuTfE8MKMH0lVNgFskUGmBBmpr3kuyXBB0xiUYJRgmGoxxK8qAYABbKJBrvMVGCGY9Sc0mSb0uCBflZU/OWGACUYAbpP0rNVWJACaZvfELHIrkeGGDBmpoXk/xZEniviRKMX0ygBAOMhUcl0RXXBaME0x+l5oK4ax+LczDJw2IA6AWTaLpyWan5bzGgBNMXuxLPb2Nhnmhq3hUDQC/sycrNCqELToNRgukNU2gWyRQaoCdWb1L4hCTwnhMlmMEqNecmuU4SKMEArDKJpitfLTVfFwNKMIu2I8kmMbAg7yd5XAwASjCjYRKNEszCmaWwSI80NQfEANArzyT5pxjw3hMlmMEpNWcmuUkSLJApNEDPNDWHk9wvCTryzVLzZTGgBLMo9yTZIgaUYACOYhJNl0yiUYJZGHMUFunfSZ4WA0Av3ZekEQNKMEowg1FqTk1ymyRYoIea6lmUAH3U1Pw1yXOSoCPfKjX/KQaUYObtziTbxMACmUID9JtJNF2ySEQJxi8elGAAlGBGwyQaJZj5KTXbsnISDIvyepLnxQDQa48meVsMdOTqUnOxGFCCmZfbkpwqBhZob1PdcAWgz5qag7HaoVu7RYASzLyYQrPwEiwCgKVgEk2XTKJRguleqdmSlecDwyI5WQBYDveKgA5dU2ouEANKMF27McmZYmCBXm1qfiUGgP5ral5J8htJ0JESk2iUYObAFJpFM4UGWC4m0XhvihLMcio1m5LslAQLZgoNsFxMounSdaXm82JACaYr1yY5VwwowQBMYF+SA2Kgw76ySwwowXTF3IRFe6Wp+b0YAJZHU/NekockgfeoKMEslVLdeIBecAoMsJxMounSDaXmbDGgBNO27yVuQY8SDMBU3ByLLm1OskMMKMG0zcyEPnBnaIAl1NS8mOTPkqBDPxYBSjBtM4Vm0X7Z1LwmBoCl5TSYLt1Uas4QA0owrSg1305yqSRYMFNogOXmumC6tDXJdjGgBNMWU2iUYABmtSfJITHQIZNolGCUYAajycpzJgFY1l/kNW8leVwSdOjWUnOaGFCCmUmp+XqSr0iCBXu2qXlDDABLzySaLm1LcpcYUIKZlVNg+sAUGmAY3ByLrplEowQzM3eFRgkGoC3PJPmnGOjQHaXmZDGgBDOVUnN5kislwYJ9lGS/GACWX1NzOMn9kqBDJye5QwwowUzLKTB98HRT87YYAAbDJJqumUSjBDM11wPTB6bQAMNyb1bu+g9dubvUbBMDSjATKTUXJblaEijBALSpqflbkmclQYdOTXKbGFCCmZQpNH1wIMkjYgAYHI9KomsWjSjB+MXBUnqsqflADACD47pgura91GwVA0owG1JqzkvyA0nQA6bQAMP0aOKmh3TqjCQ3iwElmI3a5WePEgxAV5qag37HMwfuEo0SzIaZQtMH7yZ5UgwAg2USTdd2lJrNYkAJZk2l5qwk10uCHti/elIAgBIM0zgryQ1iQAlmPTsSn5jRC2ZyAAPW1Pw+yW8kQcdMolGCWZcpNEowAPPiNJiu7Sw1m8SAEswxlZrT4y569MNbSX4mBgAlGGb0+STXigElmOO5O8mJYqAH9jU1h8UAMHgPJjkgBjpmEo0SzHHtFgE9YQoNMAJNzXtJHpIEXb/HLTVFDCjBfEqpOTnJHZJACQZgzkyi6doXklwjBpRgjnZ7kpPFQA/8ral5UQwASjC0yCQaJZjPcFdo+mKvCADGo6n5RZI/SYKu3+uaRKME84lSc2JWbooFfWAKDTA+94qAjl2U5GoxoATzsZuTnC4GesJJMMD4mEQzD5aPKMH4hUDv/Kmp+a0YAEbngSSHxEDHXBeMEkxSajYn2SEJesIUGmCEmpq3kjwuCTp2aan5thhQgrk+yVliQAkGYMFMopkHp8EowZhCowQD0AtujoX3vijBdKvUnJBkpyToiZeamj+LAWC0nknyTzHQsS+Xmm+KASV4vH6Q5Hwx0BNOgQFGrKk5nOQ+STAHJtGsabMIBs0chL44mOT/EwPA6P1fSf4fMdCx10XAWkrTNFIY6g+35o9ZeXA4LMqHSf7fJP93U/OKOAAAWDQnwcMtwFcpwMzRO0n+kuTFJC8c8V9/09R8JB4AAJRguvajJK8l2bL6z9bV/+pnzvE0Sf6V5I0J/3mzqflQfAAALANz6LH9wGvKMYrx1g3+z471v9+0+s8JR/z3R//naf93bf3/mfbfccJqMZz2n8Mz/N8dzMqU+ON/Dhz1n9v6552jyuxhf0sAABiy/x+7J17S9G/TZAAAAV96VFh0UmF3IHByb2ZpbGUgdHlwZSBpcHRjAAB4nJVSS07EMAzd5xQcwbEdu16zYseCC0wzrYSEBOL+C57NjGbQDEI0UtXGz36fpD09vzw+fHy+769vW3vIR4KbLMoaeiTFOj/d1z6JaRCxKtv0YYPJxdXCxFYmO1q3DXtkw9ml2Z6/ZgC4YysbAJ0WgHRANEf2INJ+Z9C0E03D5/WQeWYognlpPTf+GHbVmYMAQVFsuWVMNbwQCaklvPSa7c6lewfqmMQGa4GGCa8DKgbDpm62c9pSLEadUUuCCiHHeYeZqMFlHFFSowVmwhcP3pLJPEvmqN2vZFpxewDt3gn8fQD4j+ryqoVtLc8YEndA5qkhExuAQAXUlMkiuVHneWFEsYRabSDOsV7FeWFLgg0FpDgynVQ7L5nJgUlCTHrzRTo+WSjBmnbmt3coONgoKCh1NS7EL9ez/TeduvH55BvW2hczObbEmWcCEgAAB0BpVFh0WE1MOmNvbS5hZG9iZS54bXAAAAAAADw/eHBhY2tldCBiZWdpbj0n77u/JyBpZD0nVzVNME1wQ2VoaUh6cmVTek5UY3prYzlkJz8+Cjx4OnhtcG1ldGEgeG1sbnM6eD0nYWRvYmU6bnM6bWV0YS8nIHg6eG1wdGs9J0ltYWdlOjpFeGlmVG9vbCAxMS4wMSc+CjxyZGY6UkRGIHhtbG5zOnJkZj0naHR0cDovL3d3dy53My5vcmcvMTk5OS8wMi8yMi1yZGYtc3ludGF4LW5zIyc+CgogPHJkZjpEZXNjcmlwdGlvbiByZGY6YWJvdXQ9JycKICB4bWxuczpJcHRjNHhtcENvcmU9J2h0dHA6Ly9pcHRjLm9yZy9zdGQvSXB0YzR4bXBDb3JlLzEuMC94bWxucy8nPgogIDxJcHRjNHhtcENvcmU6Q3JlYXRvckNvbnRhY3RJbmZvIHJkZjpwYXJzZVR5cGU9J1Jlc291cmNlJz4KICAgPElwdGM0eG1wQ29yZTpDaVVybFdvcms+aHR0cDovL3BpeHkub3JnL3NyYy8zMi8zMjE2MDAucG5nPC9JcHRjNHhtcENvcmU6Q2lVcmxXb3JrPgogIDwvSXB0YzR4bXBDb3JlOkNyZWF0b3JDb250YWN0SW5mbz4KIDwvcmRmOkRlc2NyaXB0aW9uPgoKIDxyZGY6RGVzY3JpcHRpb24gcmRmOmFib3V0PScnCiAgeG1sbnM6YWNkc2VlPSdodHRwOi8vbnMuYWNkc2VlLmNvbS9pcHRjLzEuMC8nPgogIDxhY2RzZWU6Y2FwdGlvbj5CbHVlIHN0aWNrIG1hbiBwZXJzb24gZmlndXJlIGNsaXBhcnQ8L2FjZHNlZTpjYXB0aW9uPgogPC9yZGY6RGVzY3JpcHRpb24+CgogPHJkZjpEZXNjcmlwdGlvbiByZGY6YWJvdXQ9JycKICB4bWxuczpkYz0naHR0cDovL3B1cmwub3JnL2RjL2VsZW1lbnRzLzEuMS8nPgogIDxkYzpjcmVhdG9yPgogICA8cmRmOlNlcT4KICAgIDxyZGY6bGk+cGl4eS5vcmc8L3JkZjpsaT4KICAgPC9yZGY6U2VxPgogIDwvZGM6Y3JlYXRvcj4KICA8ZGM6ZGVzY3JpcHRpb24+CiAgIDxyZGY6QWx0PgogICAgPHJkZjpsaSB4bWw6bGFuZz0neC1kZWZhdWx0Jz5GcmVlIGltYWdlL3BuZywgUmVzb2x1dGlvbjogOTYxeDE5MjAsIEZpbGUgc2l6ZTogNDNLYiwgQmx1ZSBzdGljayBtYW4gcGVyc29uIGZpZ3VyZSBjbGlwYXJ0PC9yZGY6bGk+CiAgIDwvcmRmOkFsdD4KICA8L2RjOmRlc2NyaXB0aW9uPgogIDxkYzpyaWdodHM+CiAgIDxyZGY6QWx0PgogICAgPHJkZjpsaSB4bWw6bGFuZz0neC1kZWZhdWx0Jz5DQzA8L3JkZjpsaT4KICAgPC9yZGY6QWx0PgogIDwvZGM6cmlnaHRzPgogIDxkYzpzdWJqZWN0PgogICA8cmRmOkJhZz4KICAgIDxyZGY6bGk+c3RpY2sgbWFuLGJsdWUsZmlndXJlLHBlcnNvbixzdGlja21hbixzdGljayBmaWd1cmUsbWF0Y2hzdGljayBtYW48L3JkZjpsaT4KICAgPC9yZGY6QmFnPgogIDwvZGM6c3ViamVjdD4KICA8ZGM6dGl0bGU+CiAgIDxyZGY6QWx0PgogICAgPHJkZjpsaSB4bWw6bGFuZz0neC1kZWZhdWx0Jz5CbHVlIHN0aWNrIG1hbiBwZXJzb24gZmlndXJlIGNsaXBhcnQ8L3JkZjpsaT4KICAgPC9yZGY6QWx0PgogIDwvZGM6dGl0bGU+CiA8L3JkZjpEZXNjcmlwdGlvbj4KCiA8cmRmOkRlc2NyaXB0aW9uIHJkZjphYm91dD0nJwogIHhtbG5zOnhtcFJpZ2h0cz0naHR0cDovL25zLmFkb2JlLmNvbS94YXAvMS4wL3JpZ2h0cy8nPgogIDx4bXBSaWdodHM6VXNhZ2VUZXJtcz4KICAgPHJkZjpBbHQ+CiAgICA8cmRmOmxpIHhtbDpsYW5nPSd4LWRlZmF1bHQnPkZyZWUgZm9yIGNvbW1lcmNpYWwgdXNlLiBObyBhdHRyaWJ1dGlvbiByZXF1aXJlZDwvcmRmOmxpPgogICA8L3JkZjpBbHQ+CiAgPC94bXBSaWdodHM6VXNhZ2VUZXJtcz4KICA8eG1wUmlnaHRzOldlYlN0YXRlbWVudD5odHRwczovL3BpeHkub3JnL2xpY2VuY2UucGhwPC94bXBSaWdodHM6V2ViU3RhdGVtZW50PgogPC9yZGY6RGVzY3JpcHRpb24+CjwvcmRmOlJERj4KPC94OnhtcG1ldGE+Cjw/eHBhY2tldCBlbmQ9J3InPz4wz8HJAAAAAElFTkSuQmCC;" vertex="1" parent="1">
                    <mxGeometry x="394.9700000000001" y="60" width="50.05" height="100" as="geometry"/>
                </mxCell>
                <mxCell id="12" value="&lt;font style=&quot;font-size: 36px;&quot;&gt;FLOW 4: Preforming a user quiz&lt;/font&gt;" style="text;strokeColor=none;align=center;fillColor=none;html=1;verticalAlign=middle;whiteSpace=wrap;rounded=0;" vertex="1" parent="1">
                    <mxGeometry y="70" width="330" height="30" as="geometry"/>
                </mxCell>
                <mxCell id="15" value="store quiz information in database" style="text;strokeColor=none;align=center;fillColor=none;html=1;verticalAlign=middle;whiteSpace=wrap;rounded=0;fontSize=36;" vertex="1" parent="1">
                    <mxGeometry x="1010" y="570" width="270" height="90" as="geometry"/>
                </mxCell>
                <mxCell id="16" style="edgeStyle=none;shape=arrow;html=1;exitX=0.056;exitY=-0.111;exitDx=0;exitDy=0;exitPerimeter=0;" edge="1" parent="1">
                    <mxGeometry relative="1" as="geometry">
                        <mxPoint x="435.05999999999995" y="530.0100000000002" as="sourcePoint"/>
                        <mxPoint x="684.94" y="530.0000000000005" as="targetPoint"/>
                        <Array as="points">
                            <mxPoint x="554.9399999999999" y="530"/>
                        </Array>
                    </mxGeometry>
                </mxCell>
                <mxCell id="19" value="" style="edgeStyle=none;shape=flexArrow;html=1;exitX=0;exitY=0.25;exitDx=0;exitDy=0;entryX=1;entryY=0.25;entryDx=0;entryDy=0;fontSize=36;endArrow=none;" edge="1" parent="1" source="4" target="20">
                    <mxGeometry relative="1" as="geometry">
                        <mxPoint x="695" y="387.5000000000007" as="sourcePoint"/>
                        <mxPoint x="430" y="387.5000000000002" as="targetPoint"/>
                    </mxGeometry>
                </mxCell>
                <mxCell id="20" value="Click on dog quiz icon (while logged in)" style="text;strokeColor=none;align=center;fillColor=none;html=1;verticalAlign=middle;whiteSpace=wrap;rounded=0;fontSize=36;" vertex="1" parent="1">
                    <mxGeometry x="425" y="240" width="270" height="130" as="geometry"/>
                </mxCell>
                <mxCell id="22" value="Request dog quiz data to be stored and tied to account database" style="text;strokeColor=none;align=center;fillColor=none;html=1;verticalAlign=middle;whiteSpace=wrap;rounded=0;fontSize=36;" vertex="1" parent="1">
                    <mxGeometry x="715" y="610" width="270" height="90" as="geometry"/>
                </mxCell>
                <mxCell id="25" style="edgeStyle=none;shape=arrow;html=1;" edge="1" parent="1">
                    <mxGeometry relative="1" as="geometry">
                        <mxPoint x="440" y="1550" as="sourcePoint"/>
                        <mxPoint x="690" y="1530" as="targetPoint"/>
                        <Array as="points">
                            <mxPoint x="560" y="1662.22"/>
                        </Array>
                    </mxGeometry>
                </mxCell>
                <mxCell id="26" value="Click on dog quiz icon (while not logged in)" style="text;strokeColor=none;align=center;fillColor=none;html=1;verticalAlign=middle;whiteSpace=wrap;rounded=0;fontSize=36;" vertex="1" parent="1">
                    <mxGeometry x="425" y="1590" width="270" height="175" as="geometry"/>
                </mxCell>
                <mxCell id="27" style="edgeStyle=none;shape=flexArrow;html=1;exitX=0;exitY=0.25;exitDx=0;exitDy=0;entryX=1;entryY=0.25;entryDx=0;entryDy=0;fontSize=36;" edge="1" parent="1">
                    <mxGeometry relative="1" as="geometry">
                        <mxPoint x="680" y="1790.000000000001" as="sourcePoint"/>
                        <mxPoint x="415" y="1790" as="targetPoint"/>
                    </mxGeometry>
                </mxCell>
                <mxCell id="28" value="Prompt user to login to use feature" style="text;strokeColor=none;align=center;fillColor=none;html=1;verticalAlign=middle;whiteSpace=wrap;rounded=0;fontSize=36;" vertex="1" parent="1">
                    <mxGeometry x="410" y="1830" width="270" height="90" as="geometry"/>
                </mxCell>
                <mxCell id="29" style="edgeStyle=none;shape=flexArrow;html=1;exitX=0;exitY=0.25;exitDx=0;exitDy=0;entryX=1;entryY=0.25;entryDx=0;entryDy=0;fontSize=36;" edge="1" parent="1">
                    <mxGeometry relative="1" as="geometry">
                        <mxPoint x="695" y="390.0000000000009" as="sourcePoint"/>
                        <mxPoint x="430" y="390.0000000000002" as="targetPoint"/>
                    </mxGeometry>
                </mxCell>
                <mxCell id="30" value="Display dog quiz" style="text;strokeColor=none;align=center;fillColor=none;html=1;verticalAlign=middle;whiteSpace=wrap;rounded=0;fontSize=36;" vertex="1" parent="1">
                    <mxGeometry x="420" y="400" width="270" height="90" as="geometry"/>
                </mxCell>
                <mxCell id="31" style="edgeStyle=none;shape=arrow;html=1;exitX=0.056;exitY=-0.111;exitDx=0;exitDy=0;exitPerimeter=0;" edge="1" parent="1">
                    <mxGeometry relative="1" as="geometry">
                        <mxPoint x="725.06" y="530.0100000000002" as="sourcePoint"/>
                        <mxPoint x="974.94" y="530.0000000000005" as="targetPoint"/>
                        <Array as="points">
                            <mxPoint x="844.9399999999998" y="530"/>
                        </Array>
                    </mxGeometry>
                </mxCell>
                <mxCell id="32" value="Fill out quiz and infomation" style="text;strokeColor=none;align=center;fillColor=none;html=1;verticalAlign=middle;whiteSpace=wrap;rounded=0;fontSize=36;" vertex="1" parent="1">
                    <mxGeometry x="425" y="540" width="270" height="90" as="geometry"/>
                </mxCell>
                <mxCell id="33" style="edgeStyle=none;shape=arrow;html=1;exitX=0.056;exitY=-0.111;exitDx=0;exitDy=0;exitPerimeter=0;" edge="1" parent="1">
                    <mxGeometry relative="1" as="geometry">
                        <mxPoint x="1020.06" y="530.0100000000002" as="sourcePoint"/>
                        <mxPoint x="1269.94" y="530.0000000000005" as="targetPoint"/>
                        <Array as="points">
                            <mxPoint x="1139.9399999999998" y="530"/>
                        </Array>
                    </mxGeometry>
                </mxCell>
                <mxCell id="36" style="edgeStyle=none;shape=flexArrow;html=1;exitX=0;exitY=0.25;exitDx=0;exitDy=0;entryX=1;entryY=0.25;entryDx=0;entryDy=0;fontSize=36;" edge="1" parent="1">
                    <mxGeometry relative="1" as="geometry">
                        <mxPoint x="1275" y="970.0000000000009" as="sourcePoint"/>
                        <mxPoint x="1010" y="970.0000000000002" as="targetPoint"/>
                    </mxGeometry>
                </mxCell>
                <mxCell id="37" value="Return completion status" style="text;strokeColor=none;align=center;fillColor=none;html=1;verticalAlign=middle;whiteSpace=wrap;rounded=0;fontSize=36;" vertex="1" parent="1">
                    <mxGeometry x="1000" y="1010" width="270" height="90" as="geometry"/>
                </mxCell>
                <mxCell id="39" style="edgeStyle=none;shape=flexArrow;html=1;exitX=0;exitY=0.25;exitDx=0;exitDy=0;entryX=1;entryY=0.25;entryDx=0;entryDy=0;fontSize=36;" edge="1" parent="1">
                    <mxGeometry relative="1" as="geometry">
                        <mxPoint x="980" y="850.0000000000009" as="sourcePoint"/>
                        <mxPoint x="715" y="850.0000000000002" as="targetPoint"/>
                    </mxGeometry>
                </mxCell>
                <mxCell id="40" value="if succesful, gather dog profiles that match resutls of quiz" style="text;strokeColor=none;align=center;fillColor=none;html=1;verticalAlign=middle;whiteSpace=wrap;rounded=0;fontSize=36;" vertex="1" parent="1">
                    <mxGeometry x="730" y="920" width="270" height="90" as="geometry"/>
                </mxCell>
                <mxCell id="41" style="edgeStyle=none;shape=flexArrow;html=1;exitX=0;exitY=0.25;exitDx=0;exitDy=0;entryX=1;entryY=0.25;entryDx=0;entryDy=0;fontSize=36;" edge="1" parent="1">
                    <mxGeometry relative="1" as="geometry">
                        <mxPoint x="695" y="850.0000000000009" as="sourcePoint"/>
                        <mxPoint x="430" y="850.0000000000002" as="targetPoint"/>
                    </mxGeometry>
                </mxCell>
                <mxCell id="42" value="Display results" style="text;strokeColor=none;align=center;fillColor=none;html=1;verticalAlign=middle;whiteSpace=wrap;rounded=0;fontSize=36;" vertex="1" parent="1">
                    <mxGeometry x="430" y="860" width="270" height="90" as="geometry"/>
                </mxCell>
                <mxCell id="43" style="edgeStyle=none;shape=flexArrow;html=1;exitX=0;exitY=0.25;exitDx=0;exitDy=0;entryX=1;entryY=0.25;entryDx=0;entryDy=0;fontSize=36;" edge="1" parent="1">
                    <mxGeometry relative="1" as="geometry">
                        <mxPoint x="982.5" y="1130.000000000001" as="sourcePoint"/>
                        <mxPoint x="717.5" y="1130.0000000000002" as="targetPoint"/>
                    </mxGeometry>
                </mxCell>
                <mxCell id="44" value="if unsuccesful, return completion status" style="text;strokeColor=none;align=center;fillColor=none;html=1;verticalAlign=middle;whiteSpace=wrap;rounded=0;fontSize=36;" vertex="1" parent="1">
                    <mxGeometry x="710" y="1180" width="270" height="90" as="geometry"/>
                </mxCell>
                <mxCell id="45" style="edgeStyle=none;shape=flexArrow;html=1;exitX=0;exitY=0.25;exitDx=0;exitDy=0;entryX=1;entryY=0.25;entryDx=0;entryDy=0;fontSize=36;" edge="1" parent="1">
                    <mxGeometry relative="1" as="geometry">
                        <mxPoint x="692.5" y="1140.000000000001" as="sourcePoint"/>
                        <mxPoint x="427.5" y="1140.0000000000002" as="targetPoint"/>
                    </mxGeometry>
                </mxCell>
                <mxCell id="46" value="Display results" style="text;strokeColor=none;align=center;fillColor=none;html=1;verticalAlign=middle;whiteSpace=wrap;rounded=0;fontSize=36;" vertex="1" parent="1">
                    <mxGeometry x="430" y="1160" width="270" height="90" as="geometry"/>
                </mxCell>
            </root>
        </mxGraphModel>
    </diagram>
</mxfile>